<?xml version="1.0" encoding="utf-8"?>
<!-- Generator: Adobe Illustrator 16.0.0, SVG Export Plug-In . SVG Version: 6.00 Build 0)  -->
<!DOCTYPE svg PUBLIC "-//W3C//DTD SVG 1.1//EN" "http://www.w3.org/Graphics/SVG/1.1/DTD/svg11.dtd">
<svg version="1.1" id="Layer_1" xmlns="http://www.w3.org/2000/svg" xmlns:xlink="http://www.w3.org/1999/xlink" x="0px" y="0px"
	 width="100px" height="100px" viewBox="0 0 100 100" enable-background="new 0 0 100 100" xml:space="preserve">
<g>
	<path fill="#FFFFFF" d="M49.27,100c-3.195,0-6.398-0.318-9.518-0.945c-2.358-0.471-4.683-1.119-6.907-1.928
		c-0.575-0.209-1.171-0.436-1.766-0.678c-0.13-0.053-0.256-0.109-0.381-0.162l-0.371-0.156c-0.307-0.129-0.613-0.26-0.917-0.395
		l-0.36-0.17c-0.455-0.209-0.907-0.428-1.358-0.652l-0.431-0.219c-0.417-0.215-0.825-0.43-1.228-0.652l-0.357-0.195
		c-0.556-0.313-1.059-0.605-1.54-0.898l-0.101-0.063c-0.471-0.291-0.922-0.58-1.371-0.877l-0.415-0.279
		c-0.365-0.246-0.72-0.494-1.071-0.748c0,0-0.3-0.213-0.407-0.291c-0.466-0.342-0.929-0.689-1.385-1.051
		c-0.127-0.102-0.243-0.193-0.357-0.291c-0.05-0.037-0.103-0.078-0.152-0.119c-0.52-0.42-1.035-0.857-1.536-1.303
		c-0.068-0.043-0.136-0.084-0.202-0.133c-0.156-0.109-0.31-0.24-0.456-0.383c-0.118-0.117-0.224-0.242-0.318-0.373
		c-1.971-1.838-3.783-3.83-5.392-5.93c-0.113-0.139-0.25-0.322-0.385-0.506c-0.938-1.244-1.818-2.549-2.622-3.879
		c-0.02-0.033-0.196-0.336-0.225-0.389c-0.165-0.273-0.327-0.553-0.485-0.83c-0.177-0.189-0.328-0.404-0.449-0.641l-0.035-0.063
		c-0.117-0.213-0.205-0.436-0.262-0.664c-3.154-5.996-4.972-12.475-5.405-19.266c-0.03-0.467-0.054-0.928-0.069-1.393
		c-0.004-0.084-0.006-0.166-0.006-0.252C1.004,52.68,1,52.168,1,51.736c0-1.117,0.04-2.251,0.118-3.381
		c-0.045-0.232-0.062-0.472-0.046-0.716c0.009-0.131,0.02-0.262,0.037-0.394c0.029-0.224,0.085-0.443,0.165-0.652
		c1.446-13.615,8.639-25.99,19.81-34.039c0.107-0.081,0.214-0.156,0.321-0.228c0.461-0.33,0.926-0.649,1.39-0.954
		c0.153-0.154,0.327-0.292,0.518-0.41l0.069-0.045c0.106-0.067,0.214-0.134,0.32-0.194c0.143-0.081,0.292-0.149,0.446-0.205
		c0.565-0.347,1.103-0.661,1.632-0.952c1.326-0.749,2.788-1.473,4.315-2.137c0.491-0.214,1.007-0.426,1.571-0.646
		c1.359-0.532,2.787-1.015,4.246-1.435c0.164-0.078,0.336-0.141,0.512-0.187l0.119-0.031c0.133-0.037,0.265-0.072,0.4-0.103
		c0.03-0.007,0.06-0.013,0.089-0.019c5.053-3.072,7.413-3.435,8.757-3.435c0.347,0,0.685,0.029,1.003,0.087
		c1.854,0.339,3.929,1.006,6.031,1.939c6.912,0.501,13.486,2.436,19.545,5.752c0.08,0.04,0.16,0.083,0.24,0.129
		c0.127,0.07,0.252,0.141,0.375,0.21c0.076,0.039,0.146,0.08,0.213,0.12c1.373,0.786,2.736,1.66,4.061,2.605
		c1.535,0.613,3.055,1.658,4.629,3.188c0.646,0.629,1.207,1.361,1.643,2.137c9.029,9.084,14.004,21.145,14.004,33.993v0.189
		c0,0.072-0.004,0.15-0.008,0.229c-0.006,1.18-0.059,2.367-0.158,3.529c-0.004,0.09-0.01,0.176-0.02,0.26
		c-0.104,1.215-0.266,2.484-0.475,3.744c-0.031,0.197-0.068,0.406-0.105,0.617c-0.016,0.129-0.037,0.242-0.057,0.336
		c-0.047,0.248-0.096,0.5-0.148,0.75c-0.074,0.369-0.154,0.752-0.248,1.139c-0.016,0.072-0.029,0.146-0.049,0.219
		c-0.035,0.162-0.074,0.322-0.117,0.482c-0.016,0.09-0.037,0.178-0.061,0.264c-0.061,0.248-0.125,0.498-0.195,0.744l-0.055,0.209
		c-0.082,0.305-0.174,0.641-0.277,0.982l-0.053,0.174c-0.033,0.102-0.063,0.209-0.096,0.314c-0.092,0.301-0.189,0.598-0.285,0.896
		l-0.09,0.271c-0.648,1.939-1.416,3.816-2.289,5.604c-0.428,0.9-0.918,1.836-1.441,2.758c-0.184,0.328-0.381,0.668-0.584,1.006
		c-0.479,0.807-1.01,1.635-1.568,2.457l-0.188,0.27c-0.295,0.426-0.594,0.844-0.898,1.258l-0.15,0.201
		c-0.332,0.445-0.674,0.883-1.021,1.314l-0.279,0.344c-0.359,0.439-0.723,0.873-1.096,1.299c-0.227,0.256-0.455,0.514-0.686,0.758
		c-0.191,0.219-0.393,0.43-0.592,0.639c-0.025,0.027-0.117,0.123-0.137,0.145l-0.201,0.205c-0.189,0.191-0.377,0.385-0.568,0.572
		c-0.652,0.652-1.336,1.297-2.02,1.898c-0.029,0.027-0.148,0.137-0.18,0.166c-0.551,0.48-1.018,0.877-1.471,1.244
		c-0.291,0.234-0.588,0.473-0.887,0.697c-0.08,0.066-0.164,0.129-0.244,0.191l-0.084,0.063c-0.162,0.129-0.344,0.264-0.531,0.402
		c0,0-0.164,0.119-0.201,0.148c-0.051,0.039-0.104,0.078-0.16,0.115l-0.35,0.25c-0.303,0.221-0.611,0.432-0.928,0.643
		c-0.736,0.506-1.504,0.99-2.342,1.484c-0.25,0.156-0.508,0.307-0.764,0.453c-0.18,0.105-0.406,0.229-0.631,0.354l-0.223,0.121
		c-0.287,0.158-0.582,0.313-0.883,0.469c-0.107,0.057-0.217,0.111-0.324,0.166l-0.076,0.037c-0.242,0.123-0.502,0.256-0.768,0.383
		c-0.574,0.279-1.152,0.539-1.641,0.754c-0.127,0.055-0.254,0.109-0.385,0.164c-0.096,0.043-0.193,0.084-0.289,0.125
		c-0.234,0.102-0.473,0.197-0.711,0.291c-0.191,0.082-0.377,0.156-0.568,0.227c-0.305,0.121-0.6,0.234-0.902,0.34
		c-0.1,0.039-0.197,0.074-0.297,0.107c-0.383,0.141-0.762,0.268-1.145,0.391c-4.662,1.533-9.553,2.342-14.516,2.396
		C49.664,99.998,49.469,100,49.27,100z"/>
	<g>
		<g>
			<path fill="#6B83FF" d="M94.886,51.736v0.189c0,0.043,0,0.09-0.004,0.133c-0.006,1.162-0.059,2.318-0.156,3.457
				c0,0.053-0.006,0.105-0.01,0.152c-0.104,1.201-0.256,2.385-0.451,3.553c-0.037,0.238-0.078,0.475-0.121,0.709
				c0,0.049-0.01,0.092-0.02,0.129c-0.047,0.25-0.094,0.502-0.146,0.754c-0.076,0.373-0.156,0.746-0.246,1.121
				c-0.01,0.055-0.023,0.113-0.037,0.168c-0.037,0.178-0.082,0.352-0.127,0.527c-0.006,0.041-0.016,0.09-0.029,0.131
				c-0.059,0.238-0.119,0.48-0.186,0.717c-0.018,0.066-0.033,0.127-0.051,0.193c-0.086,0.316-0.172,0.623-0.266,0.936
				c-0.049,0.152-0.09,0.309-0.143,0.465c-0.113,0.383-0.24,0.762-0.363,1.139c-0.602,1.799-1.316,3.551-2.139,5.234
				c-0.422,0.885-0.877,1.752-1.359,2.598c-0.35,0.625-0.713,1.234-1.098,1.836v0.004c-1.291,2.068-2.754,4.018-4.352,5.84
				c-0.213,0.242-0.432,0.488-0.648,0.719c-0.189,0.213-0.389,0.422-0.582,0.625c-0.023,0.029-0.053,0.053-0.076,0.08
				c-0.246,0.252-0.486,0.502-0.734,0.744c-0.633,0.633-1.281,1.244-1.949,1.83c-0.041,0.041-0.09,0.08-0.133,0.123
				c-0.453,0.398-0.912,0.789-1.385,1.174c-0.279,0.227-0.564,0.453-0.848,0.666c-0.104,0.088-0.213,0.166-0.316,0.248
				c-0.176,0.137-0.355,0.27-0.541,0.406c-0.064,0.047-0.131,0.094-0.197,0.146h-0.006c-0.064,0.047-0.127,0.096-0.199,0.146
				c-0.074,0.051-0.145,0.104-0.221,0.156c-0.279,0.203-0.564,0.398-0.857,0.592c-0.723,0.496-1.467,0.965-2.229,1.414
				c-0.227,0.143-0.463,0.279-0.695,0.412c-0.266,0.156-0.545,0.303-0.818,0.455c-0.275,0.15-0.555,0.297-0.838,0.445
				c-0.113,0.061-0.232,0.117-0.346,0.174c-0.242,0.123-0.482,0.246-0.729,0.365c-0.516,0.25-1.031,0.482-1.557,0.713
				c-0.119,0.053-0.242,0.105-0.363,0.156c-0.086,0.039-0.172,0.076-0.256,0.109c-0.229,0.1-0.461,0.193-0.691,0.283
				c-0.174,0.076-0.346,0.143-0.521,0.209c-0.297,0.117-0.586,0.227-0.883,0.33c-0.068,0.029-0.133,0.053-0.199,0.072
				c-0.369,0.137-0.734,0.26-1.104,0.379c-4.311,1.418-8.904,2.209-13.679,2.262c-0.174,0.004-0.345,0.004-0.521,0.004
				c-3.065,0-6.061-0.307-8.957-0.889c-2.229-0.445-4.4-1.051-6.496-1.813c-1.098-0.396-2.177-0.834-3.237-1.311
				c-3.388-1.529-6.548-3.459-9.43-5.734c-0.119-0.096-0.237-0.189-0.355-0.289c-0.033-0.025-0.076-0.059-0.109-0.086
				c-0.615-0.496-1.216-1.014-1.803-1.547c-0.033-0.023-0.071-0.057-0.104-0.09c-2.025-1.836-3.885-3.848-5.55-6.02
				c-0.128-0.16-0.251-0.326-0.374-0.492c-0.88-1.168-1.699-2.379-2.456-3.633c-0.019-0.037-0.043-0.076-0.066-0.113
				c-0.042-0.076-0.09-0.152-0.127-0.223c-0.266-0.441-0.521-0.887-0.767-1.334c-0.024-0.049-0.052-0.096-0.075-0.137
				c-3.081-5.641-4.992-12.002-5.423-18.758c-0.028-0.449-0.052-0.895-0.066-1.344c-0.004-0.066-0.004-0.129-0.004-0.193
				c-0.023-0.479-0.029-0.947-0.029-1.42c0-1.315,0.057-2.612,0.166-3.899c0.005-0.071,0.009-0.142,0.019-0.213
				c1.212-13.495,8.328-25.291,18.747-32.786c0.081-0.062,0.161-0.119,0.242-0.17c0.62-0.445,1.249-0.872,1.893-1.278
				c0.099-0.061,0.198-0.127,0.298-0.185c0.639-0.401,1.283-0.786,1.945-1.149c1.315-0.743,2.683-1.415,4.079-2.021
				c0.487-0.213,0.975-0.412,1.471-0.605c1.476-0.577,2.991-1.079,4.538-1.505c0.147-0.038,0.289-0.081,0.435-0.113
				c1.496-0.398,3.024-0.715,4.576-0.957c0.894-0.142,1.808-0.255,2.721-0.34c0.089-0.009,0.184-0.019,0.274-0.023
				c1.33-0.118,2.668-0.18,4.026-0.18c7.907,0,15.335,2.016,21.804,5.569c0.043,0.019,0.086,0.042,0.125,0.066
				c0.154,0.085,0.307,0.17,0.457,0.255c0.043,0.019,0.076,0.042,0.111,0.062c3.42,1.954,6.566,4.334,9.348,7.083
				c0.016,0.01,0.033,0.028,0.047,0.043c0.023,0.019,0.047,0.037,0.068,0.061c0.008,0.009,0.018,0.023,0.027,0.033
				C89.751,27.713,94.886,39.122,94.886,51.736z"/>
			<g>
				<path fill="#FFECE1" d="M37.764,7.799c-3.994,2.55-8.153,4.897-12.767,5.578c0.1-0.062,0.199-0.127,0.298-0.185
					c4.32-0.714,8.252-2.886,12.033-5.28C37.476,7.875,37.617,7.832,37.764,7.799z"/>
				<path fill="#FFECE1" d="M71.288,11.935c-0.455,0.813-1.012,1.552-1.631,2.171c-2.441,2.452-5.85,3.734-9.133,4.841
					c-3.109,1.051-6.297,2.04-9.384,3.004c-7.685,2.394-15.634,4.864-22.996,8.408c-8.99,4.321-17.152,10.282-24.046,17.465
					c0.005-0.071,0.009-0.142,0.019-0.212c6.88-7.141,15.014-13.069,23.966-17.38c7.376-3.544,15.326-6.018,23.016-8.413
					c3.084-0.956,6.279-1.954,9.383-3c3.27-1.102,6.658-2.384,9.08-4.812c0.611-0.61,1.158-1.343,1.604-2.138
					C71.208,11.887,71.251,11.911,71.288,11.935z"/>
				<path fill="#FFECE1" d="M81.321,19.439c-4.227,1.921-8.689,3.227-13.289,3.894c-0.77,0.109-1.57,0.208-2.342,0.308
					c-3.922,0.482-7.977,0.979-11.02,3.435c-2.266,1.826-3.63,4.5-4.95,7.088c-0.558,1.098-1.13,2.224-1.77,3.274
					c-2.696,4.467-6.828,8.035-11.64,10.055c-1.774,0.744-3.667,1.297-5.498,1.831c-3.293,0.961-6.696,1.952-9.407,4.075
					c-3.582,2.797-5.484,7.137-7.315,11.328c-0.426,0.969-0.856,1.973-1.311,2.934c-0.979,2.088-2.063,4.059-3.25,5.914
					c-0.023-0.047-0.052-0.094-0.076-0.137c1.168-1.826,2.238-3.777,3.199-5.836c0.455-0.963,0.89-1.957,1.311-2.928
					c1.845-4.211,3.742-8.559,7.353-11.385c2.744-2.139,6.155-3.137,9.458-4.092c1.827-0.535,3.719-1.094,5.484-1.827
					c4.784-2.011,8.896-5.56,11.579-10.003c0.629-1.05,1.201-2.172,1.759-3.265c1.327-2.602,2.698-5.29,4.987-7.135
					c3.072-2.474,7.146-2.981,11.088-3.464c0.775-0.099,1.566-0.193,2.336-0.307c4.58-0.662,9.01-1.959,13.199-3.861
					c0.014,0.009,0.031,0.028,0.047,0.042C81.276,19.396,81.3,19.415,81.321,19.439z"/>
				<path fill="#FFECE1" d="M93.468,62.615c-0.006,0.043-0.016,0.09-0.029,0.133c-4.037-1.051-8.211-0.23-10.898,2.205
					c-3.576,3.24-4.045,8.357-4.5,13.305c-0.143,1.529-0.283,3.115-0.52,4.609c-0.299,1.896-0.785,3.771-1.447,5.602h-0.006
					c-0.066,0.047-0.129,0.096-0.199,0.146c0.697-1.883,1.203-3.813,1.514-5.766c0.238-1.492,0.379-3.072,0.521-4.609
					c0.461-4.969,0.928-10.111,4.547-13.391C85.171,62.389,89.388,61.557,93.468,62.615z"/>
				<path fill="#FFECE1" d="M94.626,55.504c0,0.053-0.006,0.104-0.01,0.15c-3.436,0.844-7.191,0.887-10.879,0.938l-0.582,0.004
					c-15.992,0.219-28.352,2.447-38.881,7.02c-11.166,4.85-20.128,12.646-25.299,21.865c-0.033-0.023-0.071-0.059-0.104-0.092
					c5.186-9.232,14.162-17.039,25.348-21.896c10.552-4.586,22.921-6.814,38.937-7.033l0.582-0.004
					C87.425,56.402,91.19,56.361,94.626,55.504z"/>
			</g>
		</g>
		<g>
			<path fill="#B03D91" d="M36.662,26.677c1.552-1.741,4.997-5.754,4.746-6.757c-0.326-1.287-3.463-5.394-5.238-5.555
				c-1.77-0.161-8.697,1.85-8.294,1.126S42.051,3.652,46.48,4.457c4.326,0.79,11.185,3.875,17.574,10.396L36.662,26.677z"/>
			<path fill="#5A2250" d="M32.877,30.051C40.2,22.28,49.933,16.814,60.38,14.604c2.85-0.603,5.766-0.97,8.674-0.803
				c2.422,0.141,4.961,0.348,7.227,1.208c1.441,0.548,2.715,1.558,3.82,2.633c1.107,1.075,1.879,2.565,1.824,4.108
				c-0.045,1.243-0.611,2.407-1.248,3.477c-3.303,5.536-8.746,9.521-14.57,12.284c-5.826,2.764-12.094,4.434-18.251,6.341
				c-3.895,1.205-7.788,2.518-11.834,3.014c-1.713,0.209-3.476,0.269-5.14-0.189c-3.056-0.842-4.689-3.183-4.487-6.309
				c0.148-2.286,1.598-3.988,2.833-5.826C30.305,32.938,31.553,31.455,32.877,30.051z"/>
			<path fill="#FFAAE1" d="M59.44,73.695c-0.053,0.25-0.104,0.502-0.16,0.748c-0.891,4.025-2.252,8.025-4.879,11.186
				c-3,3.605-7.429,5.816-12.005,6.828c-3.804,0.836-7.727,0.908-11.625,0.691c-3.388-1.529-6.548-3.459-9.43-5.734
				c-0.119-0.096-0.237-0.189-0.355-0.289c-0.033-0.025-0.076-0.059-0.109-0.086c-0.615-0.496-1.216-1.014-1.803-1.547
				c-0.033-0.023-0.071-0.057-0.104-0.09c-2.025-1.836-3.885-3.848-5.55-6.02c-0.128-0.16-0.251-0.326-0.374-0.492
				c-0.88-1.168-1.699-2.379-2.456-3.633c-0.019-0.037-0.043-0.076-0.066-0.113c-0.042-0.076-0.09-0.152-0.127-0.223
				c-0.266-0.441-0.521-0.887-0.767-1.334c-0.024-0.049-0.052-0.096-0.075-0.137c-3.081-5.641-4.992-12.002-5.423-18.758
				c0.927-0.961,2.011-1.746,3.26-2.271c3.786-1.59,8.503-0.533,11.843-2.919c2.409-1.717,3.416-4.77,4.055-7.656
				c0.643-2.886,1.117-5.943,2.9-8.299c1.552-2.049,4.036-3.354,6.601-3.473c2.01-0.089,4.017,0.507,6.019,0.293
				c3.156-0.341,5.603-2.617,7.354-5.105c0.771-1.098,1.282-2.683,2.839-2.65c1.495,0.038,3.071,1.458,3.936,2.546
				c1.1,1.386,1.781,3.052,2.396,4.712c0.439,1.178,0.855,2.366,1.248,3.563v0.005C60.817,46.394,62.2,60.371,59.44,73.695z"/>
			<path fill="#FFAAE1" d="M94.265,59.221c-0.037,0.238-0.078,0.475-0.121,0.709c0,0.049-0.01,0.092-0.02,0.129
				c-0.047,0.25-0.094,0.502-0.146,0.754c-0.076,0.373-0.156,0.746-0.246,1.121c-0.01,0.055-0.023,0.113-0.037,0.168
				c-0.037,0.178-0.082,0.352-0.127,0.527c-0.006,0.041-0.016,0.09-0.029,0.131c-0.059,0.238-0.119,0.48-0.186,0.717
				c-0.018,0.066-0.033,0.127-0.051,0.193c-0.086,0.316-0.172,0.623-0.266,0.936c-0.049,0.152-0.09,0.309-0.143,0.465
				c-0.113,0.383-0.24,0.762-0.363,1.139c-0.602,1.799-1.316,3.551-2.139,5.234c-0.422,0.885-0.877,1.752-1.359,2.598
				c-0.35,0.625-0.713,1.234-1.098,1.836v0.004c-3.463,2.723-7.332,4.926-11.439,6.502c-2.514,0.965-5.248,1.709-7.889,1.16
				c-4.193-0.881-7.047-4.746-9.037-8.541c-0.1-0.186-0.195-0.369-0.289-0.559c-3.842-7.541-5.949-15.959-6.1-24.425
				c-0.094-5.569,0.678-11.262,3.213-16.221c0.061-0.118,0.123-0.241,0.189-0.359v-0.005c2.564-4.798,6.945-8.768,12.24-9.989
				l1.188,0.577c0.721,2.03,0.459,4.253,0.52,6.406c0.059,2.153,0.58,4.52,2.324,5.778c2.002,1.448,4.928,0.938,6.98,2.313
				c1.76,1.184,2.436,3.573,2.049,5.665c-0.275,1.471-0.998,2.853-1.107,4.349c-0.137,1.826,0.734,3.695,2.215,4.77
				c2.195,1.59,5.229,1.334,7.697,2.451C92.231,56.453,93.515,57.707,94.265,59.221z"/>
			<g>
				<path fill="#FF8D9E" d="M90.392,71.443c-0.422,0.885-0.877,1.752-1.359,2.598c-1.547,2.754-3.383,5.324-5.449,7.68
					c-0.213,0.242-0.432,0.488-0.648,0.719c-0.189,0.213-0.389,0.422-0.582,0.625c-0.023,0.029-0.053,0.053-0.076,0.08
					c-0.246,0.252-0.486,0.502-0.734,0.744c-0.633,0.633-1.281,1.244-1.949,1.83c-0.041,0.041-0.09,0.08-0.133,0.123
					c-0.453,0.398-0.912,0.789-1.385,1.174c-0.279,0.227-0.564,0.453-0.848,0.666c-0.104,0.088-0.213,0.166-0.316,0.248
					c-0.176,0.137-0.355,0.27-0.541,0.406c-0.064,0.047-0.131,0.094-0.197,0.146h-0.006c-0.064,0.047-0.127,0.096-0.199,0.146
					c-0.074,0.051-0.145,0.104-0.221,0.156c-0.279,0.203-0.564,0.398-0.857,0.592c-0.723,0.496-1.467,0.965-2.229,1.414
					c-0.227,0.143-0.463,0.279-0.695,0.412c-0.266,0.156-0.545,0.303-0.818,0.455c-0.275,0.15-0.555,0.297-0.838,0.445
					c-0.113,0.061-0.232,0.117-0.346,0.174c-0.242,0.123-0.482,0.246-0.729,0.365c-0.516,0.25-1.031,0.482-1.557,0.713
					c-0.119,0.053-0.242,0.105-0.363,0.156c-0.086,0.039-0.172,0.076-0.256,0.109c-0.229,0.1-0.461,0.193-0.691,0.283
					c-0.174,0.076-0.346,0.143-0.521,0.209c-0.297,0.117-0.586,0.227-0.883,0.33c-0.068,0.029-0.133,0.053-0.199,0.072
					c-0.369,0.137-0.734,0.26-1.104,0.379c-4.311,1.418-8.904,2.209-13.679,2.262c-0.174,0.004-0.345,0.004-0.521,0.004
					c-3.065,0-6.061-0.307-8.957-0.889c-2.229-0.445-4.4-1.051-6.496-1.813c-4.619-1.666-8.887-4.061-12.667-7.045
					c-0.119-0.096-0.237-0.189-0.355-0.289c-0.033-0.025-0.076-0.059-0.109-0.086c-0.615-0.496-1.216-1.014-1.803-1.547
					c-0.033-0.023-0.071-0.057-0.104-0.09c-2.025-1.836-3.885-3.848-5.55-6.02c-0.128-0.16-0.251-0.326-0.374-0.492
					c4.06-7.684,14.224-25.896,20.587-28.361c0.957-0.374,1.841-0.695,2.655-0.984c5.347-1.883,7.835-2.177,9.663-3.814l0.189-0.17
					c0.184-0.18,0.364-0.378,0.54-0.591l0.091-0.158C48.84,40.936,49.06,30.07,49.06,30.07l9.822,9.505l-0.756,3.274l-0.063,0.265
					c-0.209,0.904-0.309,1.827-0.297,2.754c0,0.208,0.004,0.421,0.018,0.634c0.139,0.354,0.432,0.856,1.074,1.239
					c0.066,0.043,0.143,0.081,0.219,0.119c0.332,0.166,0.748,0.297,1.258,0.369c1.207,0.171,3.449,0.128,6.203,0.748
					c3.033,0.682,6.676,2.173,10.225,5.66C81.255,59.047,87.022,66.76,90.392,71.443z"/>
				<path fill="#5A2250" d="M58.126,42.85l-0.063,0.265c-0.209,0.904-0.309,1.827-0.297,2.754c-0.965,0.047-1.936-0.118-2.816-0.507
					c-1.49-0.652-2.658-1.883-3.521-3.26c-0.658-1.055-0.932-2.039-1.245-3.245C52.485,40.763,55.226,42.131,58.126,42.85z"/>
				<path fill="#5A2250" d="M90.392,71.443c-0.422,0.885-0.877,1.752-1.359,2.598c-1.547,2.754-3.383,5.324-5.449,7.68
					c-0.213,0.242-0.432,0.488-0.648,0.719c-0.189,0.213-0.389,0.422-0.582,0.625c-0.023,0.029-0.053,0.053-0.076,0.08
					c-0.246,0.252-0.486,0.502-0.734,0.744c-0.633,0.633-1.281,1.244-1.949,1.83c-0.041,0.041-0.09,0.08-0.133,0.123
					c-0.453,0.398-0.912,0.789-1.385,1.174c-0.279,0.227-0.564,0.453-0.848,0.666c-0.104,0.088-0.213,0.166-0.316,0.248
					c-0.176,0.137-0.355,0.27-0.541,0.406c-0.064,0.047-0.131,0.094-0.197,0.146h-0.006c-0.064,0.047-0.127,0.096-0.199,0.146
					c-0.074,0.051-0.145,0.104-0.221,0.156c-0.279,0.203-0.564,0.398-0.857,0.592c-0.723,0.496-1.467,0.965-2.229,1.414
					c-0.227,0.143-0.463,0.279-0.695,0.412c-0.266,0.156-0.545,0.303-0.818,0.455c-0.275,0.15-0.555,0.297-0.838,0.445
					c-0.113,0.061-0.232,0.117-0.346,0.174c-0.242,0.123-0.482,0.246-0.729,0.365c-0.516,0.25-1.031,0.482-1.557,0.713
					c-0.119,0.053-0.242,0.105-0.363,0.156c-0.086,0.039-0.172,0.076-0.256,0.109c-0.229,0.1-0.461,0.193-0.691,0.283
					c-0.174,0.076-0.346,0.143-0.521,0.209c-0.297,0.117-0.586,0.227-0.883,0.33c-0.068,0.029-0.133,0.053-0.199,0.072
					c-0.369,0.137-0.734,0.26-1.104,0.379c-4.311,1.418-8.904,2.209-13.679,2.262c-0.174,0.004-0.345,0.004-0.521,0.004
					c-3.065,0-6.061-0.307-8.957-0.889c-2.229-0.445-4.4-1.051-6.496-1.813c-4.619-1.666-8.887-4.061-12.667-7.045
					c-0.119-0.096-0.237-0.189-0.355-0.289c-0.033-0.025-0.076-0.059-0.109-0.086c-0.615-0.496-1.216-1.014-1.803-1.547
					c-0.033-0.023-0.071-0.057-0.104-0.09c-2.025-1.836-3.885-3.848-5.55-6.02c-0.128-0.16-0.251-0.326-0.374-0.492
					c4.06-7.684,14.224-25.896,20.587-28.361c0.957-0.374,1.841-0.695,2.655-0.984c0.908,0.477,1.807,1.026,2.777,1.419
					c4.779,1.926,10.074,2.357,15.156,1.693c2.91-0.377,5.768-1.107,8.508-2.158c1.264-0.482,2.531-1.036,3.809-1.523
					c3.033,0.682,6.676,2.173,10.225,5.66C81.255,59.047,87.022,66.76,90.392,71.443z"/>
				<g>
					<g>
						<circle fill="#FF8D9E" cx="59.447" cy="27.735" r="10.47"/>
						<path fill="#FF8D9E" d="M69.675,30.393c0,0-1.932,14.255-9.342,13.369c-7.408-0.886-9.987-2.98-10.793-6.121
							c-0.805-3.141-0.482-11.054-0.482-11.054L69.675,30.393z"/>
					</g>
					<g>
						<g>
							<path fill="#FFAAE1" d="M57.407,18.755c0.572,0.835,0.742,1.88,0.781,2.892c0.055,1.482-0.359,3.252-1.75,3.766
								c-1.035,0.381-2.268-0.094-3.256,0.397c-0.914,0.454-1.274,1.557-1.496,2.555c-0.221,1-0.46,2.113-1.296,2.704
								c-0.813,0.573-1.988,0.431-2.782-0.167c-0.793-0.599-1.24-1.565-1.419-2.542c-0.54-2.947,1.146-5.908,3.373-7.911
								C51.332,18.859,55.476,15.935,57.407,18.755z"/>
							<path fill="#FFAAE1" d="M58.157,21.959c0.838,0.267,1.742,0.132,2.621,0.149c0.879,0.017,1.854,0.256,2.32,1.002
								c0.416,0.667,0.293,1.52,0.391,2.3c0.174,1.41,1.113,2.652,2.307,3.423c1.195,0.771,2.619,1.117,4.033,1.252
								c0.16,0.015,0.35,0.017,0.451-0.11c0.061-0.074,0.072-0.175,0.082-0.27c0.285-2.862,0.203-5.922-1.305-8.372
								c-1.563-2.542-4.451-4.027-7.375-4.621c-1.451-0.294-5.295-0.754-6.246,0.854C54.612,18.958,56.933,21.569,58.157,21.959z"/>
						</g>
						<g>
							<g>
								<circle fill="#5A2250" cx="56.765" cy="31.647" r="1.053"/>
								<circle fill="#5A2250" cx="65.516" cy="33.041" r="1.052"/>
							</g>
							<g>
								<g>
									<path fill="#5A2250" d="M54.993,28.769c0,0,0.09-0.231,0.279-0.453c0.047-0.054,0.098-0.119,0.156-0.17
										c0.047-0.052,0.176-0.114,0.277-0.155c0.219-0.099,0.473-0.169,0.727-0.219c0.232,0.001,0.465,0.008,0.678,0.059
										c0.211,0.025,0.398,0.133,0.547,0.239c0.301,0.201,0.434,0.426,0.434,0.426c0.176,0.296,0.09,0.673-0.186,0.868
										l-0.158,0.11c0,0-0.209,0.146-0.42,0.228c-0.055,0.025-0.111,0.043-0.166,0.053c-0.055,0.011-0.115,0.054-0.174,0.064
										c-0.117,0.046-0.234,0.05-0.355,0.047c-0.088,0.02-0.178,0.019-0.283-0.014c-0.057,0.001-0.094-0.06-0.182-0.04
										c-0.078,0.011-0.158,0.003-0.23,0.002c-0.293-0.009-0.523-0.098-0.523-0.098c-0.377-0.145-0.566-0.567-0.422-0.944
										L54.993,28.769z"/>
								</g>
								<g>
									<path fill="#5A2250" d="M67.302,31.624c0,0-0.246,0.025-0.529-0.043c-0.07-0.018-0.15-0.032-0.225-0.063
										c-0.078-0.042-0.131,0.007-0.184-0.009c-0.109,0.004-0.197-0.019-0.277-0.061c-0.117-0.029-0.23-0.063-0.33-0.139
										c-0.053-0.024-0.102-0.082-0.152-0.107c-0.049-0.024-0.098-0.057-0.145-0.095c-0.182-0.135-0.346-0.331-0.346-0.331
										l-0.121-0.146c-0.221-0.264-0.195-0.651,0.045-0.887c0,0,0.188-0.182,0.531-0.297c0.17-0.064,0.379-0.119,0.592-0.087
										c0.217,0.007,0.445,0.062,0.668,0.121c0.232,0.115,0.459,0.25,0.643,0.402c0.088,0.066,0.195,0.16,0.227,0.223
										c0.045,0.064,0.076,0.14,0.107,0.205c0.125,0.264,0.15,0.51,0.15,0.51c0.043,0.402-0.248,0.761-0.65,0.803L67.302,31.624z"
										/>
								</g>
							</g>
							
								<path fill="none" stroke="#5A2250" stroke-width="0.5089" stroke-linecap="round" stroke-linejoin="round" stroke-miterlimit="10" d="
								M62.921,30.95c-0.328,1.383-0.631,3.18-0.99,4.555c-0.096,0.362-0.561,0.468-0.805,0.186
								c-0.238-0.271-0.467-0.549-0.691-0.831"/>
							
								<path fill="none" stroke="#5A2250" stroke-width="0.5089" stroke-linecap="round" stroke-linejoin="round" stroke-miterlimit="10" d="
								M59.077,36.199c0.602,0.792,1.689,1.181,2.656,0.95"/>
						</g>
					</g>
					<g>
						<path fill="#FF8D9E" d="M48.539,29.584c-0.326-0.326-0.682-0.632-1.1-0.827c-0.419-0.194-0.91-0.267-1.345-0.112
							c-0.399,0.14-0.714,0.453-0.964,0.795c-0.697,0.954-0.973,2.216-0.692,3.364c0.281,1.149,1.125,2.154,2.227,2.587
							c0.937,0.369,2.106,0.28,2.825-0.426c0.435-0.427,0.664-1.031,0.743-1.637c0.082-0.617,0.136-1.404-0.218-1.948
							C49.598,30.737,49.08,30.124,48.539,29.584z"/>
						<g>
							
								<path fill="none" stroke="#5A2250" stroke-width="0.6644" stroke-linecap="round" stroke-linejoin="round" stroke-miterlimit="10" d="
								M45.453,30.847c0.729-0.024,1.492-0.002,2.128,0.542c0.756,0.649,1.292,1.658,1.597,2.789"/>
							
								<path fill="none" stroke="#5A2250" stroke-width="0.6644" stroke-linecap="round" stroke-linejoin="round" stroke-miterlimit="10" d="
								M46.416,32.708c0.491-0.175,1.015-0.047,1.499,0.164c0.457,0.2,0.92,0.502,1.177,1.05c0.007,0.015,0.015,0.031,0.027,0.028
								c0.013-0.002,0.01-0.037-0.002-0.028"/>
						</g>
					</g>
				</g>
			</g>
			<g>
				<g>
					<path fill="#FFECE1" d="M59.077,47.861c-1.283,6.567-3.029,13.102-5.178,19.442v0.006c-0.104,0.316-0.213,0.623-0.32,0.936
						c-0.02,0.049-0.063,0.08-0.113,0.08c-0.006,0-0.006,0-0.006,0c-0.057-0.004-0.1-0.043-0.113-0.094
						c-0.07-0.307-0.143-0.615-0.223-0.922c-0.738-2.994-1.76-5.949-2.754-8.816l-4.419-12.761l0.189-0.17l4.453,12.851
						c1.002,2.887,2.035,5.859,2.773,8.877c0.047,0.16,0.084,0.326,0.123,0.486c0.055-0.164,0.113-0.326,0.164-0.492
						c2.168-6.363,3.914-12.936,5.205-19.541C58.925,47.785,59.001,47.823,59.077,47.861z"/>
				</g>
				<g>
					<circle fill="#FFECE1" cx="53.529" cy="70.139" r="2.859"/>
				</g>
			</g>
		</g>
		<g>
			<g opacity="0.48">
				<circle opacity="0.44" fill="#FFECE1" cx="52.42" cy="75.957" r="17.095"/>
				<path opacity="0.44" fill="#FFECE1" d="M66.208,79.594c0,7.375-5.977,13.352-13.35,13.352s-13.351-5.977-13.351-13.352
					c0-7.371,5.978-13.35,13.351-13.35S66.208,72.223,66.208,79.594z"/>
			</g>
			<g>
				<path fill="#FFAA5C" d="M49.237,93.025c-3.354-0.656-6.667-2.502-8.181-5.564c-0.552-1.115-0.847-2.385-0.667-3.617
					c0.181-1.23,0.877-2.414,1.96-3.027c0.571-0.326,1.308-0.475,1.873-0.141c0.563,0.332,0.78,1.018,1.044,1.617
					c0.335,0.758,0.859,1.494,1.636,1.783s1.819-0.061,2.035-0.859c0.124-0.459-0.036-0.941-0.189-1.389
					c-0.437-1.275-0.853-2.572-0.981-3.916c-0.129-1.34,0.05-2.748,0.741-3.906s1.945-2.023,3.293-2.027
					c0.555-0.002,1.154,0.172,1.465,0.629c0.316,0.469,0.25,1.09,0.146,1.645c-0.361,1.939-1.002,3.928-0.514,5.84
					c0.15,0.582,0.543,1.232,1.143,1.209c0.666-0.027,0.975-0.82,1.121-1.469c0.127-0.57,0.258-1.145,0.387-1.717
					c0.123-0.547,0.445-1.238,0.998-1.141c0.199,0.033,0.365,0.176,0.492,0.332c0.666,0.828,0.473,2.02,0.602,3.072
					c0.061,0.475,0.283,1.029,0.756,1.092c0.215,0.029,0.43-0.057,0.619-0.16c1-0.555,1.742-1.713,2.885-1.756
					c0.719-0.025,1.391,0.441,1.77,1.055c0.379,0.611,0.506,1.346,0.545,2.064c0.201,3.84-2.166,7.688-5.689,9.236
					c-2.498,1.098-5.324,1.076-8.054,1.035"/>
				<path fill="#FFECE1" d="M48.109,90.537c-0.92-1.848-0.282-4.326,1.416-5.498c0.213-0.146,0.512-0.271,0.711-0.109
					c0.171,0.139,0.157,0.398,0.137,0.615c-0.042,0.455-0.044,0.936,0.159,1.346c0.205,0.41,0.668,0.723,1.111,0.615
					c0.448-0.105,0.72-0.596,0.729-1.055c0.012-0.461-0.178-0.898-0.361-1.32c-0.283-0.641-0.565-1.283-0.849-1.926
					c-0.072-0.166-0.146-0.344-0.111-0.521c0.071-0.371,0.541-0.492,0.919-0.477c1.082,0.043,2.129,0.604,2.766,1.477
					c0.639,0.873,0.852,2.039,0.566,3.084c-0.078,0.283-0.189,0.602-0.045,0.859c0.193,0.346,0.736,0.32,1.035,0.061
					s0.424-0.662,0.564-1.033c0.139-0.371,0.334-0.762,0.695-0.924c0.404-0.18,0.896-0.004,1.199,0.316
					c0.305,0.32,0.451,0.758,0.555,1.188c0.229,0.953,0.279,1.992-0.123,2.887c-0.426,0.947-1.316,1.629-2.289,1.99
					c-1.316,0.488-3.172,0.814-4.594,0.807C50.594,92.908,48.897,92.115,48.109,90.537z"/>
			</g>
		</g>
		<g>
			<g>
				<g>
					<path fill="#FFAA5C" d="M18.375,37.081l5.768-0.457l-5.717-0.529c0.84-0.961,2.101-2.467,2.101-2.467s-1.545,1.359-2.59,2.293
						l-0.444-6.038l-0.422,5.851c-0.999-0.881-2.518-2.027-2.518-2.027s1.397,1.54,2.256,2.479l-5.846,0.378l5.797,0.485
						c-0.891,0.992-2.128,2.631-2.128,2.631s1.556-1.412,2.493-2.27l0.428,5.592l0.46-5.612c0.948,0.834,2.593,2.211,2.593,2.211
						S19.306,38.124,18.375,37.081z"/>
				</g>
				<g>
					<g>
						<path fill="#FFAA5C" d="M77.917,68.621l8.039-0.637l-7.969-0.738c1.172-1.34,2.93-3.438,2.93-3.438s-2.156,1.895-3.611,3.197
							l-0.619-8.418l-0.588,8.156c-1.391-1.229-3.51-2.824-3.51-2.824s1.947,2.145,3.146,3.453L67.587,67.9l8.08,0.676
							c-1.242,1.383-2.967,3.668-2.967,3.668s2.168-1.967,3.475-3.164l0.598,7.795l0.641-7.822c1.32,1.162,3.613,3.082,3.613,3.082
							S79.214,70.074,77.917,68.621z"/>
					</g>
				</g>
			</g>
			<g>
				<g>
					<path fill="#FFECE1" d="M42.14,63.176c-0.057-0.01-0.055-0.092,0.003-0.098c0.781-0.066,2.298-0.252,2.468-0.691
						c0.181-0.465,0.514-2.262,0.649-3.016c0.01-0.057,0.091-0.053,0.097,0.002c0.096,0.844,0.367,2.969,0.673,3.168
						c0.293,0.189,1.66,0.391,2.297,0.475c0.056,0.01,0.058,0.086,0.003,0.098c-0.511,0.09-1.021,0.199-1.516,0.355
						c-0.25,0.082-0.526,0.176-0.738,0.348c-0.247,0.197-0.299,0.434-0.367,0.727c-0.149,0.662-0.25,1.336-0.351,2.008
						c-0.008,0.055-0.091,0.053-0.098-0.004c-0.085-0.74-0.33-2.283-0.919-2.73C43.919,63.492,42.782,63.277,42.14,63.176z"/>
				</g>
				<g>
					<path fill="#FFECE1" d="M8.35,63.176c-0.058-0.01-0.055-0.092,0.003-0.098c0.781-0.066,2.298-0.252,2.468-0.691
						c0.18-0.465,0.514-2.262,0.649-3.016c0.011-0.057,0.091-0.053,0.097,0.002c0.096,0.844,0.366,2.969,0.672,3.168
						c0.292,0.189,1.66,0.391,2.298,0.475c0.056,0.01,0.058,0.086,0.002,0.098c-0.51,0.09-1.021,0.199-1.516,0.355
						c-0.25,0.082-0.525,0.176-0.737,0.348c-0.247,0.197-0.299,0.434-0.366,0.727c-0.15,0.662-0.251,1.336-0.352,2.008
						c-0.008,0.055-0.09,0.053-0.097-0.004c-0.086-0.74-0.331-2.283-0.919-2.73C10.129,63.492,8.991,63.277,8.35,63.176z"/>
				</g>
				<g>
					<path fill="#FFECE1" d="M85.329,48.272c-0.057-0.009-0.055-0.092,0.004-0.097c0.779-0.067,2.297-0.252,2.467-0.691
						c0.182-0.465,0.514-2.262,0.65-3.017c0.01-0.056,0.09-0.053,0.098,0.002c0.094,0.842,0.365,2.969,0.672,3.167
						c0.291,0.19,1.66,0.391,2.299,0.477c0.053,0.006,0.055,0.086,0.002,0.096c-0.512,0.091-1.023,0.2-1.516,0.357
						c-0.25,0.08-0.527,0.176-0.738,0.346c-0.248,0.199-0.299,0.435-0.365,0.728c-0.15,0.661-0.252,1.335-0.352,2.005
						c-0.01,0.057-0.092,0.055-0.098-0.002c-0.086-0.741-0.33-2.283-0.92-2.732C87.11,48.59,85.972,48.373,85.329,48.272z"/>
				</g>
				<g>
					<path fill="#FFECE1" d="M75.899,32.993c-0.057-0.009-0.055-0.092,0.002-0.098c0.783-0.066,2.299-0.251,2.469-0.691
						c0.182-0.465,0.514-2.262,0.65-3.017c0.01-0.055,0.09-0.052,0.096,0.003c0.096,0.842,0.367,2.968,0.674,3.167
						c0.291,0.189,1.658,0.391,2.297,0.476c0.057,0.008,0.057,0.086,0.004,0.096c-0.512,0.092-1.021,0.2-1.516,0.358
						c-0.252,0.08-0.527,0.176-0.738,0.346c-0.246,0.198-0.299,0.434-0.365,0.727c-0.15,0.661-0.252,1.335-0.352,2.006
						c-0.01,0.057-0.092,0.055-0.098-0.003c-0.086-0.74-0.33-2.282-0.92-2.731C77.679,33.311,76.542,33.094,75.899,32.993z"/>
				</g>
				<g>
					<path fill="#FFECE1" d="M20.843,23.168c-0.05-0.007-0.047-0.08,0.003-0.083c0.678-0.059,1.996-0.219,2.144-0.601
						c0.157-0.404,0.446-1.964,0.564-2.621c0.008-0.048,0.079-0.045,0.083,0.003c0.084,0.732,0.318,2.577,0.584,2.75
						c0.253,0.165,1.442,0.339,1.995,0.414c0.048,0.006,0.05,0.075,0.002,0.083c-0.443,0.079-0.887,0.173-1.316,0.311
						c-0.217,0.068-0.456,0.152-0.64,0.3c-0.214,0.172-0.26,0.377-0.318,0.632c-0.131,0.574-0.219,1.159-0.306,1.742
						c-0.007,0.049-0.079,0.047-0.084-0.002c-0.074-0.643-0.287-1.982-0.798-2.373C22.389,23.444,21.401,23.256,20.843,23.168z"/>
				</g>
			</g>
		</g>
	</g>
</g>
</svg>
