<?xml version="1.0" encoding="utf-8"?>
<!-- Generator: Adobe Illustrator 16.0.0, SVG Export Plug-In . SVG Version: 6.00 Build 0)  -->
<!DOCTYPE svg PUBLIC "-//W3C//DTD SVG 1.1//EN" "http://www.w3.org/Graphics/SVG/1.1/DTD/svg11.dtd">
<svg version="1.1" id="Layer_1" xmlns="http://www.w3.org/2000/svg" xmlns:xlink="http://www.w3.org/1999/xlink" x="0px" y="0px"
	 width="120px" height="100px" viewBox="0 0 120 100" enable-background="new 0 0 120 100" xml:space="preserve">
<g>
	<path fill="#FF931E" d="M55.021,99.788c-3.271,0-6.549-0.325-9.743-0.968c-0.572-0.113-1.157-0.241-1.781-0.39l-0.239-0.062
		c-0.448-0.108-0.905-0.222-1.357-0.346l-0.217-0.063l-0.059-0.018c-0.15-0.042-0.332-0.092-0.512-0.146
		c-0.157-0.046-0.322-0.098-0.487-0.15l-0.388-0.119c-0.144-0.045-0.287-0.088-0.43-0.134c-0.596-0.192-1.121-0.372-1.606-0.55
		c-4.964-1.789-9.602-4.369-13.771-7.66c-0.13-0.105-0.249-0.201-0.366-0.298c-0.051-0.039-0.104-0.082-0.152-0.12
		c-0.351-0.284-0.697-0.574-1.039-0.868c-0.32-0.275-0.639-0.559-0.956-0.844c-0.036-0.032-0.11-0.1-0.11-0.1
		c-0.49-0.445-0.962-0.894-1.46-1.386l-0.245-0.243c-0.494-0.494-0.93-0.944-1.34-1.388l-0.082-0.086
		c-0.416-0.453-0.838-0.932-1.302-1.476l-0.332-0.396c-0.481-0.578-0.872-1.063-1.229-1.53c-1.09-1.406-2.128-2.919-3.078-4.486
		c-0.022-0.036-0.203-0.346-0.233-0.402c-0.279-0.465-0.553-0.942-0.814-1.419c-0.008-0.017-0.064-0.116-0.064-0.116
		c-3.705-6.784-5.713-14.131-5.986-21.858c-0.004-0.09-0.007-0.175-0.008-0.264c-0.026-0.558-0.029-1.083-0.029-1.528
		c0-1.391,0.06-2.808,0.178-4.211c0.007-0.103,0.015-0.204,0.027-0.307c1.291-14.235,8.708-27.206,20.355-35.597
		c0.11-0.083,0.219-0.16,0.328-0.233c0.67-0.479,1.353-0.94,2.03-1.368c0,0,0.268-0.168,0.353-0.218
		c0.726-0.457,1.414-0.862,2.099-1.239c1.358-0.768,2.854-1.509,4.418-2.188c0.488-0.213,1.016-0.431,1.605-0.661
		c1.592-0.623,3.252-1.173,4.933-1.636l0.167-0.044c0.115-0.032,0.23-0.063,0.348-0.09c1.589-0.421,3.252-0.767,4.94-1.029
		c0.954-0.152,1.953-0.277,2.961-0.371c0.094-0.011,0.214-0.021,0.333-0.03c1.445-0.127,2.905-0.191,4.341-0.191
		c8.274,0,16.453,2.082,23.652,6.021c0.081,0.041,0.161,0.084,0.24,0.132c0.131,0.071,0.258,0.143,0.385,0.214
		c0.088,0.045,0.163,0.089,0.224,0.126c3.691,2.111,7.082,4.676,10.078,7.625l0,0c0.088,0.076,0.19,0.171,0.294,0.289
		c2.177,2.169,4.144,4.528,5.873,7.045c1.784-0.609,3.663-0.924,5.544-0.924c2.441,0,4.815,0.514,7.055,1.53
		c4.16,1.887,7.338,5.284,8.947,9.562c1.607,4.279,1.455,8.929-0.432,13.092c-2.357,5.197-7.182,8.847-12.712,9.799
		c-0.125,1.217-0.299,2.451-0.521,3.682c-0.015,0.11-0.032,0.224-0.058,0.337c-0.052,0.273-0.097,0.521-0.149,0.768
		c-0.077,0.377-0.16,0.771-0.257,1.167c-0.013,0.073-0.03,0.146-0.047,0.221c-0.037,0.166-0.077,0.331-0.118,0.495
		c-0.021,0.092-0.041,0.182-0.065,0.27c-0.062,0.256-0.129,0.514-0.199,0.767l-0.046,0.169l0,0
		c-0.092,0.354-0.188,0.697-0.296,1.046l-0.048,0.167c-0.034,0.111-0.068,0.225-0.104,0.336c-0.095,0.316-0.197,0.631-0.299,0.942
		l-0.084,0.254c-0.997,2.974-2.278,5.846-3.816,8.555c-1.65,2.937-3.646,5.747-5.924,8.344c-0.235,0.266-0.469,0.53-0.703,0.78
		c-0.198,0.221-0.402,0.438-0.606,0.651c-0.027,0.03-0.12,0.128-0.139,0.145l-0.184,0.189c-0.201,0.207-0.403,0.412-0.605,0.611
		c-0.666,0.667-1.369,1.325-2.067,1.941c-0.028,0.028-0.15,0.144-0.185,0.171c-0.569,0.499-1.048,0.902-1.504,1.271
		c-0.297,0.241-0.603,0.486-0.909,0.718c-0.083,0.066-0.17,0.133-0.253,0.195L84.9,89.73c-0.163,0.128-0.344,0.264-0.533,0.402
		c0,0-0.097,0.072-0.112,0.084c-0.029,0.021-0.062,0.041-0.09,0.064c-0.056,0.043-0.114,0.086-0.174,0.125l-0.363,0.26
		c-0.31,0.227-0.625,0.442-0.95,0.657c-0.751,0.515-1.535,1.014-2.398,1.523c-0.255,0.158-0.517,0.311-0.775,0.459
		c-0.187,0.109-0.41,0.231-0.638,0.354l-0.239,0.132c-0.294,0.164-0.599,0.323-0.904,0.483c-0.118,0.061-0.238,0.121-0.354,0.179
		l-0.065,0.032c-0.236,0.121-0.507,0.258-0.78,0.388c-0.569,0.278-1.143,0.535-1.678,0.772c-0.118,0.051-0.389,0.166-0.389,0.166
		c-0.101,0.044-0.202,0.089-0.3,0.128c-0.24,0.104-0.482,0.203-0.728,0.299c-0.199,0.085-0.399,0.163-0.602,0.239
		c-0.28,0.113-0.587,0.229-0.903,0.34c-0.1,0.04-0.204,0.076-0.309,0.11c-0.39,0.143-0.777,0.274-1.172,0.4
		c-4.748,1.563-9.736,2.392-14.798,2.453c0,0-0.183,0.005-0.213,0.005c-0.028,0-0.057-0.001-0.085-0.001
		C55.24,99.787,55.13,99.788,55.021,99.788z"/>
	<g>
		<path fill="#FFAAE1" d="M101.749,50.376v0.194c0,0.043,0,0.092-0.003,0.136c-0.008,1.191-0.06,2.374-0.161,3.542
			c0,0.052-0.004,0.104-0.009,0.154c-0.128,1.478-0.324,2.932-0.588,4.365c0,0.047-0.009,0.092-0.02,0.129
			c-0.048,0.258-0.095,0.515-0.15,0.772c-0.077,0.383-0.158,0.764-0.251,1.147c-0.009,0.058-0.024,0.116-0.039,0.175
			c-0.038,0.179-0.081,0.358-0.131,0.537c-0.005,0.043-0.014,0.092-0.03,0.135c-0.056,0.242-0.12,0.49-0.188,0.732
			c-0.021,0.068-0.034,0.13-0.052,0.199c-0.089,0.324-0.178,0.639-0.272,0.959c-0.05,0.155-0.093,0.315-0.146,0.475
			c-0.114,0.393-0.249,0.779-0.374,1.168c-0.938,2.803-2.139,5.483-3.578,8.016c-1.584,2.819-3.464,5.45-5.58,7.862
			c-0.22,0.249-0.442,0.5-0.664,0.737c-0.195,0.217-0.399,0.432-0.597,0.64c-0.024,0.028-0.055,0.052-0.076,0.082
			c-0.252,0.257-0.502,0.513-0.751,0.761c-0.65,0.648-1.314,1.274-1.997,1.875c-0.045,0.043-0.093,0.082-0.136,0.126
			c-0.464,0.406-0.935,0.808-1.418,1.201c-0.286,0.231-0.578,0.465-0.868,0.683c-0.107,0.086-0.219,0.169-0.324,0.252
			c-0.181,0.141-0.363,0.275-0.552,0.417c-0.069,0.047-0.136,0.097-0.203,0.149h-0.006c-0.067,0.048-0.131,0.097-0.204,0.151
			c-0.076,0.052-0.15,0.106-0.229,0.159c-0.285,0.207-0.575,0.407-0.876,0.605c-0.739,0.509-1.502,0.988-2.28,1.448
			c-0.234,0.146-0.477,0.286-0.713,0.421c-0.271,0.16-0.557,0.312-0.838,0.466s-0.567,0.306-0.859,0.456
			c-0.115,0.062-0.235,0.12-0.354,0.179c-0.247,0.125-0.494,0.251-0.745,0.372c-0.528,0.258-1.057,0.494-1.594,0.732
			c-0.121,0.054-0.247,0.106-0.372,0.159c-0.088,0.039-0.175,0.077-0.263,0.111c-0.231,0.103-0.469,0.2-0.707,0.29
			c-0.178,0.078-0.354,0.146-0.533,0.214c-0.307,0.12-0.601,0.233-0.906,0.34c-0.068,0.029-0.134,0.053-0.202,0.072
			c-0.378,0.141-0.75,0.267-1.128,0.388c-4.414,1.453-9.118,2.262-14.006,2.315c-0.179,0.006-0.353,0.006-0.532,0.006
			c-3.14,0-6.207-0.316-9.171-0.911c-2.281-0.456-4.505-1.075-6.651-1.855c-4.728-1.705-9.098-4.157-12.968-7.214
			c-0.121-0.098-0.242-0.193-0.363-0.296c-0.034-0.023-0.078-0.059-0.112-0.087c-0.629-0.508-1.245-1.036-1.845-1.583
			c-0.034-0.025-0.072-0.059-0.106-0.093c-2.073-1.88-3.977-3.939-5.683-6.16c-1.045-1.353-2.01-2.764-2.896-4.227
			c-0.019-0.037-0.043-0.077-0.068-0.115c-0.043-0.078-0.093-0.156-0.131-0.229c-0.271-0.451-0.532-0.905-0.784-1.365
			c-0.025-0.049-0.054-0.097-0.078-0.141c-3.363-6.157-5.363-13.147-5.62-20.58c-0.005-0.065-0.005-0.13-0.005-0.197
			c-0.024-0.489-0.029-0.97-0.029-1.454c0-1.347,0.059-2.674,0.17-3.993c0.004-0.074,0.01-0.147,0.019-0.218
			c1.241-13.817,8.527-25.894,19.194-33.566c0.083-0.063,0.165-0.121,0.247-0.175c0.634-0.455,1.279-0.891,1.937-1.308
			c0.102-0.063,0.204-0.131,0.306-0.189c0.654-0.411,1.313-0.804,1.991-1.176c1.347-0.761,2.747-1.449,4.175-2.069
			c0.5-0.218,0.999-0.422,1.507-0.62c1.512-0.591,3.062-1.104,4.646-1.54c0.15-0.039,0.295-0.083,0.445-0.117
			c1.531-0.407,3.096-0.732,4.684-0.979c0.915-0.145,1.851-0.261,2.786-0.348c0.091-0.011,0.189-0.02,0.281-0.025
			c1.361-0.121,2.731-0.184,4.123-0.184c8.095,0,15.7,2.063,22.321,5.702c0.045,0.019,0.088,0.043,0.127,0.068
			c0.158,0.086,0.315,0.174,0.469,0.261c0.043,0.021,0.077,0.043,0.111,0.063c3.504,2.001,6.726,4.437,9.572,7.251
			c0.016,0.01,0.035,0.029,0.05,0.044c0.024,0.02,0.047,0.04,0.067,0.063c0.01,0.009,0.019,0.023,0.029,0.033
			C96.495,25.78,101.749,37.459,101.749,50.376z"/>
		<g>
			<path fill="#FFECE1" d="M43.371,5.404c-4.088,2.612-8.347,5.014-13.07,5.712c0.102-0.063,0.204-0.131,0.306-0.189
				c4.423-0.731,8.448-2.955,12.319-5.406C43.076,5.482,43.221,5.438,43.371,5.404z"/>
			<path fill="#FFECE1" d="M77.693,9.639c-0.465,0.833-1.036,1.588-1.67,2.223c-2.501,2.509-5.989,3.823-9.353,4.956
				c-3.183,1.076-6.447,2.088-9.604,3.076c-7.868,2.452-16.007,4.98-23.544,8.608c-9.204,4.423-17.56,10.527-24.618,17.881
				c0.004-0.074,0.01-0.147,0.019-0.218c7.044-7.312,15.372-13.38,24.537-17.794c7.552-3.628,15.69-6.162,23.563-8.613
				c3.158-0.977,6.429-2,9.605-3.071c3.347-1.128,6.817-2.44,9.297-4.926c0.623-0.625,1.186-1.376,1.642-2.189
				C77.611,9.59,77.654,9.614,77.693,9.639z"/>
			<path fill="#FFECE1" d="M87.963,17.322c-4.326,1.966-8.895,3.303-13.604,3.987c-0.789,0.111-1.606,0.213-2.395,0.315
				c-4.018,0.493-8.171,1.003-11.285,3.517c-2.32,1.871-3.715,4.606-5.066,7.257c-0.572,1.123-1.159,2.276-1.812,3.351
				c-2.762,4.573-6.991,8.225-11.917,10.296c-1.816,0.759-3.754,1.328-5.629,1.875c-3.372,0.983-6.854,1.997-9.63,4.172
				c-3.667,2.862-5.615,7.305-7.49,11.597c-0.437,0.993-0.876,2.021-1.342,3.003c-1.002,2.136-2.112,4.156-3.327,6.057
				c-0.025-0.049-0.054-0.097-0.078-0.141c1.196-1.869,2.291-3.866,3.274-5.975c0.465-0.988,0.911-2.005,1.342-2.998
				c1.889-4.311,3.832-8.764,7.528-11.654c2.81-2.19,6.303-3.213,9.684-4.192c1.87-0.548,3.808-1.12,5.615-1.872
				c4.898-2.059,9.107-5.691,11.854-10.24c0.645-1.075,1.231-2.223,1.802-3.342c1.356-2.665,2.761-5.417,5.105-7.305
				c3.145-2.534,7.316-3.052,11.351-3.546c0.796-0.102,1.605-0.199,2.394-0.315c4.689-0.679,9.224-2.006,13.51-3.954
				c0.016,0.01,0.035,0.029,0.05,0.044C87.92,17.278,87.942,17.298,87.963,17.322z"/>
			<path fill="#FFECE1" d="M100.397,61.528c-0.005,0.043-0.014,0.092-0.03,0.135c-4.132-1.074-8.404-0.237-11.155,2.259
				c-3.661,3.318-4.142,8.556-4.606,13.621c-0.146,1.564-0.29,3.188-0.532,4.719c-0.306,1.942-0.805,3.861-1.481,5.735h-0.006
				c-0.067,0.048-0.131,0.097-0.204,0.151c0.713-1.929,1.229-3.906,1.549-5.905c0.245-1.527,0.388-3.145,0.535-4.72
				c0.469-5.086,0.95-10.353,4.655-13.71C91.907,61.296,96.223,60.443,100.397,61.528z"/>
			<path fill="#FFECE1" d="M101.585,54.248c0,0.052-0.004,0.104-0.009,0.154c-3.518,0.861-7.365,0.907-11.139,0.96l-0.596,0.003
				c-16.373,0.223-29.026,2.507-39.805,7.186C38.604,67.516,29.429,75.5,24.134,84.937c-0.034-0.025-0.072-0.059-0.106-0.093
				c5.31-9.452,14.499-17.443,25.951-22.419c10.802-4.694,23.467-6.976,39.863-7.199l0.596-0.006
				C94.211,55.168,98.067,55.124,101.585,54.248z"/>
		</g>
		<g>
			<path fill="#5A2250" d="M54.326,34.538c1.521,9.284,3.352,18.518,5.488,27.68c0.581,2.489,1.221,5.053,2.762,7.091
				c2.739,3.618,7.683,4.763,12.218,4.816c4.137,0.048,8.389-0.645,11.927-2.79c5.65-3.426,9.645-10.516,8.321-16.99
				c-0.78-3.805-4.729-6.148-8.532-6.94c-2.203-0.46-4.644-0.64-6.292-2.173c-2.181-2.028-2.018-5.524-1.217-8.392
				c0.8-2.867,2.085-5.768,1.58-8.702c-0.422-2.46-2.186-4.648-4.5-5.585c-2.847-1.153-6.085-0.438-9.122-0.887
				c-0.813-0.121-1.642-0.338-2.291-0.842c-1.89-1.468-1.41-4.377-2.003-6.696c-0.751-2.94-3.442-5.069-6.332-5.992
				c-2.891-0.923-5.993-0.847-9.025-0.762C49.75,16.268,52.834,25.435,54.326,34.538z"/>
			<path fill="#5A2250" d="M46.708,7.103c-4.511-0.255-9.097,1.095-12.75,3.754c-1.034,0.752-2.002,1.616-2.744,2.657
				c-2.013,2.827-2.058,6.863-0.255,9.828c0.547,0.901,1.279,1.875,1.01,2.893c-0.112,0.425-0.391,0.784-0.682,1.113
				c-0.918,1.036-2.026,1.887-2.958,2.912c-2.033,2.234-3.146,5.283-3.032,8.301c0.103,2.707,1.167,5.154,1.98,7.74
				c0.159,0.508,0.294,1.059,0.127,1.564c-0.227,0.688-0.934,1.08-1.583,1.403c-2.49,1.245-5.042,2.491-7.017,4.449
				c-3.094,3.068-4.42,7.811-3.366,12.038c0.462,1.856,1.398,3.659,2.937,4.795c1.767,1.306,4.078,1.577,6.273,1.649
				c7.458,0.244,14.848-1.308,22.127-2.953c2.195-0.495,4.524-1.076,6.067-2.714c1.126-1.198,1.685-2.817,2.05-4.422
				c0.843-3.717,0.8-7.578,0.547-11.382c-0.514-7.722-1.873-15.359-3.227-22.977C51.002,20.951,49.344,13.488,46.708,7.103z"/>
			<g>
				<path fill="#FF8D9E" d="M90.207,57.387L55.08,67.197L23.582,63.32C26.881,54.911,44.936,48.888,47,47.24
					c0.79-0.634,1.061-1.933,1.09-3.301c0.01-0.401,0-0.802-0.024-1.2c-0.044-0.732-0.141-1.429-0.233-1.992
					c-0.126-0.803-0.256-1.341-0.256-1.341l13.026-9.732c0,0,0.116,4.447,0.503,8.046c0.185,1.657,0.422,3.135,0.737,3.914
					c0.987,2.471,10.962,6.185,18.219,8.414C87.317,52.271,90.207,57.387,90.207,57.387z"/>
				<path opacity="0.46" fill="#5A2250" d="M58.407,36.936c-0.857,1.928-1.961,3.701-3.546,5.1c-1.579,1.4-3.647,2.32-5.759,2.244
					c-0.252-0.009-0.514-0.034-0.747-0.149c-0.097-0.05-0.183-0.116-0.266-0.191c0.01-0.401,0-0.802-0.024-1.2
					c-0.044-0.732-0.141-1.429-0.233-1.992C51.606,40.415,55.289,39.082,58.407,36.936z"/>
				<g>
					<g>
						<path fill="#FF8D9E" d="M48.132,7.702c-7.275,0-13.172,5.897-13.172,13.172c0,1.07,0.13,2.109,0.372,3.105l0.061,0.171
							c0,0,3.524,17.152,9.956,16.822c6.431-0.33,14.347-3.381,14.76-5.771c0.249-1.445,0.558-6.889,0.765-10.976
							c0.281-1.07,0.431-2.193,0.431-3.352C61.305,13.6,55.407,7.702,48.132,7.702z"/>
						<g>
							<g>
								<circle fill="#5A2250" cx="39.769" cy="27.134" r="1.264"/>
								<circle fill="#5A2250" cx="50.428" cy="24.675" r="1.265"/>
								<path fill="#5A2250" d="M36.955,24.293c-0.187,0.27-0.317,0.653-0.113,0.909c0.207,0.259,0.608,0.21,0.926,0.119
									c0.586-0.168,1.153-0.401,1.688-0.695c0.19-0.106,0.383-0.222,0.518-0.395c0.136-0.171,0.204-0.411,0.123-0.613
									c-0.064-0.162-0.21-0.276-0.368-0.349C38.735,22.813,37.516,23.478,36.955,24.293z"/>
								<path fill="#5A2250" d="M48.675,21.059c-0.257,0.205-0.494,0.533-0.372,0.836c0.124,0.308,0.521,0.379,0.852,0.383
									c0.61,0.009,1.22-0.05,1.817-0.176c0.215-0.045,0.432-0.101,0.61-0.227c0.179-0.125,0.316-0.333,0.296-0.551
									c-0.015-0.173-0.122-0.325-0.251-0.441C50.81,20.16,49.45,20.442,48.675,21.059z"/>
							</g>
							
								<path fill="none" stroke="#5A2250" stroke-width="0.5" stroke-linecap="round" stroke-linejoin="round" stroke-miterlimit="10" d="
								M43.241,24.895c0.237,2.1,0.475,4.199,0.712,6.299c0.478-0.742,0.956-1.481,1.434-2.223"/>
							
								<path fill="none" stroke="#5A2250" stroke-width="0.5" stroke-linecap="round" stroke-linejoin="round" stroke-miterlimit="10" d="
								M44.55,32.05c1.338,0.063,2.688-0.621,3.428-1.738"/>
						</g>
						<path fill="#5A2250" d="M44.504,7.589c-0.941,1.935-0.125,4.399,1.494,5.817c1.618,1.417,3.85,1.94,6.001,1.994
							c-0.055,2.165,0.86,4.335,2.448,5.808c1.588,1.472,4.268,2.357,6.424,2.14c1.818-3.596,0.866-8.216-1.768-11.265
							c-1.898-2.197-4.641-3.487-7.41-4.356C49.5,7.038,46.637,6.73,44.504,7.589z"/>
					</g>
					<g>
						<path fill="#FF8D9E" d="M62.186,21.304c0.586-0.116,1.206-0.134,1.771,0.063c0.887,0.31,1.526,1.114,1.879,1.983
							c0.447,1.104,0.494,2.373,0.09,3.493c-0.408,1.119-1.277,2.071-2.374,2.536c-0.825,0.349-1.746,0.421-2.64,0.348
							c-0.737-0.061-1.494-0.229-2.083-0.679c-0.672-0.513-1.051-1.351-1.123-2.194C57.479,24.227,59.688,21.798,62.186,21.304z"/>
						<g>
							
								<path fill="none" stroke="#5A2250" stroke-width="0.5" stroke-linecap="round" stroke-linejoin="round" stroke-miterlimit="10" d="
								M61.063,28.667c-0.09-2.331,1.021-4.677,2.887-6.079"/>
							
								<path fill="none" stroke="#5A2250" stroke-width="0.5" stroke-linecap="round" stroke-linejoin="round" stroke-miterlimit="10" d="
								M61.076,27.774c0.254-0.853,0.777-1.624,1.479-2.173c0.699-0.549,1.572-0.875,2.462-0.918"/>
						</g>
					</g>
				</g>
			</g>
			<path fill="#B03D91" d="M90.207,57.387L55.08,67.197L23.582,63.32C26.881,54.911,44.936,48.888,47,47.24
				c1.022-0.818,1.173-2.756,1.066-4.5c4.8,0.454,9.785-1.458,13.04-5.02c0.185,1.657,0.422,3.135,0.737,3.914
				c0.987,2.471,10.962,6.185,18.219,8.414C87.317,52.271,90.207,57.387,90.207,57.387z"/>
			<g>
				<path fill="#6B83FF" d="M95.758,73.212c-1.584,2.819-3.464,5.45-5.58,7.862c-0.22,0.249-0.442,0.5-0.664,0.737
					c-0.22,0.246-0.451,0.488-0.673,0.722c-0.252,0.257-0.502,0.513-0.751,0.761c-0.65,0.648-1.314,1.274-1.997,1.875
					c-0.045,0.043-0.093,0.082-0.136,0.126c-0.464,0.406-0.935,0.808-1.418,1.201c-0.286,0.231-0.578,0.465-0.868,0.683
					c-0.107,0.086-0.219,0.169-0.324,0.252c-0.181,0.141-0.363,0.275-0.552,0.417c-0.209,0.154-0.429,0.31-0.642,0.46
					c-0.285,0.207-0.575,0.407-0.876,0.605c-0.739,0.509-1.502,0.988-2.28,1.448c-0.234,0.146-0.477,0.286-0.713,0.421
					c-0.271,0.16-0.557,0.312-0.838,0.466s-0.567,0.306-0.859,0.456c-0.115,0.062-0.235,0.12-0.354,0.179
					c-0.247,0.125-0.494,0.251-0.745,0.372c-0.528,0.258-1.057,0.494-1.594,0.732c-0.209,0.092-0.417,0.184-0.635,0.271
					c-0.231,0.103-0.469,0.2-0.707,0.29c-0.178,0.078-0.354,0.146-0.533,0.214c-0.307,0.12-0.601,0.233-0.906,0.34
					c-0.068,0.029-0.134,0.053-0.202,0.072c-0.378,0.141-0.75,0.267-1.128,0.388c-4.414,1.453-9.118,2.262-14.006,2.315
					c-0.179,0.006-0.353,0.006-0.532,0.006c-3.14,0-6.207-0.316-9.171-0.911c-1.076-0.213-2.136-0.467-3.183-0.751
					c-0.242-0.068-0.484-0.136-0.726-0.209c-0.925-0.271-1.841-0.565-2.742-0.896c-4.728-1.705-9.098-4.157-12.968-7.214
					c-0.121-0.098-0.242-0.193-0.363-0.296c-0.034-0.023-0.078-0.059-0.112-0.087c-2.842-2.306-5.405-4.937-7.634-7.836
					c1.483-7.688,4.114-17.46,8.289-20.968c10.018-8.412,18.466-6.971,21.314-12.908c0,0,4.863,12.592,6.284,17.127
					c0.111,0.368,0.203,0.683,0.271,0.935l0.343-0.993l7.198-20.906c0,0,1.362,2.721,7.423,4.826
					c4.596,1.594,11.833,3.619,16.136,6.125c1.149,0.663,2.088,1.365,2.709,2.103c0.124,0.14,0.23,0.284,0.328,0.43
					C90.83,57.739,94.375,68.683,95.758,73.212z"/>
				<g>
					
						<line fill="none" stroke="#5A2250" stroke-width="0.5" stroke-miterlimit="10" x1="55.777" y1="96.877" x2="54.872" y2="69.298"/>
					<circle fill="#FFAA5C" cx="54.873" cy="65.589" r="3.711"/>
				</g>
			</g>
		</g>
		<g>
			<g>
				<path fill="#5A2250" d="M101.377,42.168l-2.896,2.626l-10.168,9.231L55.351,83.914l-12.46,11.307
					c-0.242-0.068-0.484-0.136-0.726-0.209l13.124-13.046l26.837-26.682l3.478-3.361l10.077-9.731l3.226-3.114L101.377,42.168z"/>
				<circle fill="#5A2250" cx="101.872" cy="38.335" r="7.297"/>
			</g>
			<g>
				<path fill="#FFAA5C" d="M102.245,39.455l5.922,2.14l-5.428-3.096c1.264-0.575,3.191-1.5,3.191-1.5s-2.145,0.652-3.6,1.109
					l2.275-6.186l-3.051,5.61c-0.594-1.32-1.584-3.14-1.584-3.14s0.693,2.154,1.124,3.471l-5.966-2.254l5.527,3.089
					c-1.33,0.583-3.292,1.652-3.292,1.652s2.178-0.7,3.492-1.129l-2.089,5.735l2.978-5.357c0.566,1.253,1.578,3.357,1.578,3.357
					S102.698,40.907,102.245,39.455z"/>
				<circle opacity="0.4" fill="#FFECE1" cx="101.52" cy="38.605" r="10.742"/>
				<circle opacity="0.4" fill="#FFECE1" cx="101.519" cy="38.605" r="14.206"/>
			</g>
			<g>
				<g>
					<path fill="#B03D91" d="M94.493,56.311c-0.66,1.487-4.617,8.491-5.439,14.515c-0.073,0.522-0.127,1.103-0.161,1.733
						c-0.163,2.698-0.052,6.245,0.024,9.893c-0.024,0.028-0.055,0.052-0.076,0.082c-0.252,0.257-0.502,0.513-0.751,0.761
						c-0.65,0.648-1.314,1.274-1.997,1.875c-0.045,0.043-0.093,0.082-0.136,0.126c-0.464,0.406-0.935,0.808-1.418,1.201
						c-0.286,0.231-0.578,0.465-0.868,0.683c-0.107,0.086-0.219,0.169-0.324,0.252c-0.181,0.141-0.363,0.275-0.552,0.417
						c-0.209,0.154-0.429,0.31-0.642,0.46c-0.285,0.207-0.575,0.407-0.876,0.605c-0.739,0.509-1.502,0.988-2.28,1.448
						c-0.234,0.146-0.477,0.286-0.713,0.421c-0.271,0.16-0.557,0.312-0.838,0.466s-0.567,0.306-0.859,0.456
						c-0.115,0.062-0.235,0.12-0.354,0.179c-0.247,0.125-0.494,0.251-0.745,0.372c-0.528,0.258-1.057,0.494-1.594,0.732
						c-0.121,0.054-0.247,0.106-0.372,0.159c1.734-5.076,3.89-11.576,4.891-15.313c0.64-2.39,1.111-5.101,1.499-7.673
						c0.712-4.714,1.167-8.953,1.965-9.811c1.237-1.316,2.56-2.553,2.56-2.553l-0.286-0.219l-2.471-1.854c0,0,0-0.005,0.005-0.021
						c0.043-0.165,0.362-1.356,0.877-2.048c0.043-0.068,0.093-0.126,0.149-0.18c0.025-0.029,0.055-0.055,0.077-0.079
						c0.084-0.071,0.165-0.13,0.252-0.174c0.132-0.062,0.268-0.082,0.407-0.048c0,0,0.005-0.043,0.02-0.125
						c0.071-0.379,0.378-1.531,1.464-2.346c1.229-0.921,1.67-0.483,1.725-0.421c-0.004-0.014-0.021-0.053-0.038-0.111
						c-0.025-0.107-0.055-0.281-0.041-0.513c0.029-0.379,0.181-0.908,0.664-1.514c0.988-1.235,2.224-0.989,2.224-0.989
						s0-0.006-0.01-0.015c-0.102-0.165-1.215-2.025-1.947-3.657c-0.004-0.011-0.016-0.02-0.016-0.029
						c-0.469-1.047-0.779-1.992-0.566-2.335c0.017-0.015,0.025-0.029,0.036-0.039c0.007-0.01,0.019-0.021,0.027-0.029
						c0.827-0.659,7.257,7.176,7.668,8.499C95.073,50.871,95.156,54.828,94.493,56.311z"/>
					<path fill="#FF8D9E" d="M94.49,56.312c-0.659,1.487-4.616,8.492-5.439,14.514c-0.072,0.522-0.126,1.104-0.158,1.733
						c-1.59,0.276-3.282,0.054-4.828-0.465c-1.305-0.44-2.862-1.095-4.154-1.932c0.712-4.715,0.85-9.313,1.648-10.169
						c1.233-1.318,2.626-2.443,2.626-2.443l-2.514-1.855c0,0,0.7-2.765,1.774-2.518c0,0,0.166-1.482,1.482-2.471
						c1.231-0.92,1.67-0.483,1.726-0.421c-0.039-0.096-0.35-0.969,0.587-2.138c0.986-1.235,2.224-0.989,2.224-0.989
						s-3.301-5.445-2.478-6.104c0.829-0.658,7.257,7.176,7.67,8.5C95.07,50.872,95.154,54.829,94.49,56.312z"/>
				</g>
				<g>
					
						<path fill="none" stroke="#5A2250" stroke-width="0.5" stroke-linecap="round" stroke-linejoin="round" stroke-miterlimit="10" d="
						M86.986,41.054c0,0-0.492,0.373,0.086,1.569c0.576,1.194,2.392,4.535,2.392,4.535"/>
					
						<path fill="none" stroke="#5A2250" stroke-width="0.5" stroke-linecap="round" stroke-linejoin="round" stroke-miterlimit="10" d="
						M86.535,50.128c0,0-0.041-1.403,1.072-2.269c1.113-0.867,1.691-0.744,2.145-0.495c0.453,0.248,2.513,1.979,3.091,3.052"/>
					
						<path fill="none" stroke="#5A2250" stroke-width="0.5" stroke-linecap="round" stroke-linejoin="round" stroke-miterlimit="10" d="
						M86.535,50.136c1.392,0.494,2.478,1.579,3.514,2.629"/>
					
						<path fill="none" stroke="#5A2250" stroke-width="0.5" stroke-linecap="round" stroke-linejoin="round" stroke-miterlimit="10" d="
						M83.45,53.042c1.095,0.583,2.049,1.428,2.759,2.445"/>
				</g>
			</g>
		</g>
		<g>
			<g>
				<path fill="#FFECE1" d="M66.923,13.157l5.656-0.448l-5.606-0.519c0.822-0.943,2.061-2.42,2.061-2.42s-1.517,1.334-2.542,2.25
					l-0.437-5.923l-0.413,5.739c-0.98-0.863-2.469-1.988-2.469-1.988s1.37,1.511,2.212,2.432l-5.734,0.371l5.687,0.477
					c-0.873,0.973-2.088,2.582-2.088,2.582s1.526-1.385,2.446-2.227l0.419,5.485l0.451-5.506c0.93,0.819,2.544,2.169,2.544,2.169
					S67.834,14.179,66.923,13.157z"/>
			</g>
			<g>
				<path fill="#FFECE1" d="M21.042,46.811l5.659-0.449l-5.608-0.519c0.824-0.943,2.061-2.421,2.061-2.421s-1.517,1.334-2.541,2.252
					l-0.436-5.926l-0.414,5.74c-0.98-0.864-2.47-1.988-2.47-1.988s1.371,1.51,2.214,2.431l-5.735,0.371l5.688,0.476
					c-0.874,0.976-2.088,2.584-2.088,2.584s1.526-1.385,2.445-2.228l0.42,5.486l0.451-5.507c0.93,0.818,2.543,2.171,2.543,2.171
					S21.956,47.835,21.042,46.811z"/>
			</g>
			<g>
				<path fill="#FFECE1" d="M72.757,82.511l5.656-0.446l-5.606-0.52c0.822-0.943,2.063-2.421,2.063-2.421s-1.517,1.334-2.544,2.251
					l-0.432-5.924l-0.415,5.739c-0.981-0.863-2.471-1.989-2.471-1.989s1.371,1.513,2.215,2.433l-5.737,0.371l5.687,0.478
					c-0.873,0.972-2.087,2.58-2.087,2.58s1.527-1.386,2.445-2.228l0.421,5.485l0.451-5.504c0.931,0.816,2.544,2.167,2.544,2.167
					S73.67,83.534,72.757,82.511z"/>
			</g>
			<path fill="#FFECE1" d="M79.581,33.419c-0.057-0.009-0.055-0.091,0.003-0.096c0.766-0.065,2.254-0.248,2.422-0.678
				c0.178-0.457,0.504-2.218,0.638-2.959c0.009-0.056,0.088-0.053,0.095,0.003c0.093,0.826,0.358,2.912,0.66,3.106
				c0.285,0.187,1.627,0.385,2.252,0.468c0.056,0.007,0.058,0.085,0.004,0.095c-0.502,0.089-1.003,0.195-1.487,0.351
				c-0.243,0.078-0.516,0.171-0.724,0.339c-0.24,0.194-0.292,0.425-0.358,0.713c-0.149,0.649-0.247,1.31-0.347,1.967
				c-0.007,0.055-0.088,0.055-0.093-0.002c-0.086-0.727-0.326-2.239-0.904-2.679C81.326,33.729,80.211,33.517,79.581,33.419z"/>
			<path fill="#FFECE1" d="M22.068,77.081c-0.057-0.009-0.054-0.09,0.002-0.095c0.767-0.065,2.255-0.247,2.422-0.678
				c0.177-0.458,0.504-2.22,0.637-2.96c0.01-0.055,0.089-0.053,0.095,0.002c0.093,0.828,0.358,2.912,0.66,3.107
				c0.286,0.186,1.628,0.383,2.254,0.467c0.054,0.008,0.056,0.085,0.001,0.096c-0.5,0.09-1.001,0.194-1.486,0.35
				c-0.245,0.079-0.515,0.173-0.723,0.339c-0.242,0.195-0.294,0.428-0.359,0.714c-0.148,0.649-0.247,1.311-0.345,1.968
				c-0.008,0.056-0.089,0.054-0.096-0.002c-0.083-0.726-0.323-2.238-0.902-2.68C23.814,77.394,22.698,77.18,22.068,77.081z"/>
			<path fill="#FFECE1" d="M23.228,26.507c-0.056-0.008-0.053-0.09,0.003-0.095c0.766-0.065,2.254-0.248,2.422-0.678
				c0.176-0.457,0.503-2.218,0.637-2.96c0.009-0.055,0.089-0.053,0.095,0.002c0.094,0.826,0.358,2.912,0.66,3.107
				c0.286,0.187,1.629,0.384,2.254,0.467c0.055,0.006,0.057,0.085,0.002,0.094c-0.5,0.09-1.002,0.197-1.486,0.35
				c-0.245,0.079-0.516,0.173-0.724,0.34c-0.242,0.194-0.294,0.426-0.359,0.714c-0.147,0.649-0.247,1.31-0.345,1.967
				c-0.008,0.055-0.089,0.053-0.095-0.002c-0.084-0.726-0.324-2.239-0.902-2.679C24.974,26.818,23.857,26.605,23.228,26.507z"/>
		</g>
	</g>
</g>
</svg>
