<?xml version="1.0" encoding="utf-8"?>
<!-- Generator: Adobe Illustrator 16.0.0, SVG Export Plug-In . SVG Version: 6.00 Build 0)  -->
<!DOCTYPE svg PUBLIC "-//W3C//DTD SVG 1.1//EN" "http://www.w3.org/Graphics/SVG/1.1/DTD/svg11.dtd">
<svg version="1.1" id="Layer_1" xmlns="http://www.w3.org/2000/svg" xmlns:xlink="http://www.w3.org/1999/xlink" x="0px" y="0px"
	 width="100px" height="100px" viewBox="0 0 100 100" enable-background="new 0 0 100 100" xml:space="preserve">
<g>
	<path fill="#FF931E" d="M50.109,99.632c-3.306,0-6.608-0.327-9.815-0.976c-2.294-0.455-4.567-1.079-6.749-1.85
		c0,0-0.209-0.073-0.269-0.096c-0.038-0.014-0.116-0.044-0.116-0.044c-5.034-1.826-9.679-4.415-13.853-7.71l-0.135-0.11
		c-1.393-0.878-2.632-1.967-3.688-3.239c-3.077-2.981-5.75-6.333-7.948-9.961c-0.027-0.044-0.079-0.138-0.079-0.138
		c-0.059-0.099-0.112-0.19-0.163-0.281C3.07,68.118,0.682,59.982,0.389,51.696c-0.005-0.096-0.008-0.19-0.009-0.286
		c-0.02-0.511-0.026-1.017-0.026-1.528c0-15.958,7.742-31.056,20.71-40.394c0.1-0.075,0.201-0.145,0.301-0.214
		c1.432-1.021,2.952-1.979,4.515-2.849c1.417-0.799,2.926-1.548,4.47-2.215c0.528-0.228,1.063-0.447,1.603-0.659
		c3.386-1.325,6.907-2.274,10.473-2.823c0.986-0.154,1.981-0.279,2.95-0.369c0.119-0.013,0.242-0.025,0.361-0.033
		c1.435-0.128,2.906-0.193,4.372-0.193c8.568,0,17.009,2.212,24.418,6.399c0.102,0.037,0.2,0.081,0.297,0.129
		c0.101,0.05,0.189,0.099,0.275,0.148c0.164,0.095,0.316,0.203,0.455,0.321c3.278,1.95,6.33,4.28,9.082,6.937
		c0.211,0.11,0.409,0.244,0.593,0.403c0.154,0.134,0.293,0.273,0.424,0.427c0.157,0.185,0.291,0.386,0.399,0.597
		c8.661,9.034,13.528,20.786,13.795,33.303c0.228,0.434,0.351,0.923,0.351,1.428c0,0.169-0.007,0.336-0.026,0.504
		c-0.048,0.395-0.17,0.771-0.354,1.107c-0.071,1.884-0.252,3.772-0.542,5.645c0.103,0.308,0.157,0.635,0.157,0.969
		c0,0.377-0.062,0.674-0.108,0.864c-0.111,0.455-0.323,0.873-0.613,1.227c-0.035,0.157-0.072,0.314-0.108,0.471
		c-0.018,0.082-0.036,0.163-0.057,0.245c-0.113,0.493-0.237,0.981-0.365,1.47c-0.011,0.039-0.058,0.209-0.072,0.256
		c-0.093,0.345-0.187,0.686-0.291,1.024c-0.041,0.143-0.091,0.314-0.146,0.487c-0.124,0.416-0.26,0.826-0.395,1.231
		c-1.246,3.72-2.949,7.306-5.066,10.661c-1.382,2.194-2.973,4.326-4.729,6.332L87.3,82.924c-0.176,0.196-0.352,0.394-0.53,0.586
		c-0.234,0.261-0.479,0.516-0.718,0.766c-0.271,0.283-0.538,0.55-0.805,0.816c-0.67,0.674-1.394,1.356-2.144,2.018l-0.14,0.123
		c-0.524,0.455-1.011,0.877-1.518,1.288c-0.295,0.242-0.607,0.489-0.92,0.726c-0.116,0.093-0.231,0.182-0.348,0.271
		c-0.184,0.141-0.383,0.29-0.588,0.44c-0.228,0.172-0.46,0.338-0.692,0.499c-0.31,0.226-0.626,0.442-0.945,0.657
		c-0.749,0.511-1.575,1.036-2.439,1.547c-0.23,0.142-0.497,0.3-0.766,0.449c-0.131,0.076-0.264,0.151-0.398,0.227
		c-0.044,0.054-0.09,0.106-0.135,0.16c-0.245,0.288-0.54,0.529-0.873,0.711c-0.091,0.051-0.186,0.099-0.282,0.146L72.971,94.4
		c-0.428,0.222-0.885,0.334-1.341,0.348c-0.484,0.232-0.999,0.469-1.568,0.718c-0.222,0.098-0.448,0.195-0.68,0.29
		c-0.249,0.108-0.499,0.211-0.753,0.31c-0.193,0.081-0.381,0.154-0.572,0.226c-0.322,0.13-0.641,0.251-0.967,0.366
		c-0.09,0.033-0.18,0.065-0.272,0.096c-0.389,0.143-0.778,0.275-1.171,0.403C60.655,98.798,55.424,99.632,50.109,99.632z"/>
	<g>
		<g>
			<path fill="#B03D91" d="M96.778,49.882v0.195c0,0.046,0,0.093-0.006,0.139v0.133c0,0.046,0,0.092-0.005,0.138
				c-0.025,2.67-0.287,5.278-0.754,7.814c0,0.047-0.011,0.087-0.021,0.129v0.005c-0.047,0.257-0.099,0.514-0.148,0.77
				c-0.078,0.386-0.16,0.771-0.253,1.15c-0.01,0.063-0.025,0.118-0.041,0.18c-0.107,0.473-0.226,0.94-0.349,1.407
				c-0.021,0.067-0.036,0.133-0.057,0.201c-0.087,0.322-0.175,0.642-0.272,0.96c-0.046,0.159-0.093,0.317-0.143,0.478
				c-0.118,0.395-0.248,0.785-0.376,1.17c-1.186,3.544-2.794,6.892-4.749,9.993c-1.325,2.104-2.814,4.087-4.442,5.944
				c-0.221,0.247-0.44,0.499-0.667,0.74c-0.221,0.246-0.452,0.487-0.678,0.724c-0.246,0.257-0.498,0.509-0.75,0.76
				c-0.646,0.653-1.313,1.278-2.002,1.885c-0.047,0.041-0.092,0.082-0.139,0.123c-0.467,0.406-0.935,0.813-1.423,1.206
				c-0.287,0.236-0.579,0.468-0.872,0.688c-0.108,0.088-0.216,0.17-0.324,0.252c-0.18,0.139-0.364,0.277-0.554,0.417
				c-0.211,0.158-0.427,0.313-0.642,0.461c-0.288,0.211-0.581,0.41-0.879,0.611c-0.744,0.509-1.51,0.991-2.29,1.453
				c-0.236,0.144-0.478,0.288-0.719,0.421c-0.272,0.159-0.555,0.313-0.837,0.468c-0.015,0.01-0.031,0.015-0.046,0.024
				c-0.104,0.057-0.205,0.113-0.309,0.165c-0.169,0.093-0.339,0.18-0.508,0.268c-0.118,0.062-0.237,0.123-0.354,0.18
				c-0.246,0.128-0.498,0.251-0.75,0.374c-0.528,0.258-1.058,0.499-1.597,0.734c-0.211,0.093-0.421,0.186-0.637,0.272
				c-0.236,0.103-0.473,0.2-0.714,0.292c-0.179,0.078-0.354,0.145-0.534,0.211c-0.302,0.123-0.601,0.236-0.908,0.344
				c-0.067,0.025-0.134,0.052-0.206,0.072c-0.375,0.139-0.749,0.268-1.13,0.391c-4.59,1.51-9.493,2.325-14.587,2.325
				c-3.152,0-6.229-0.313-9.206-0.913c-2.167-0.431-4.283-1.012-6.332-1.736c-0.082-0.03-0.164-0.057-0.246-0.087
				c-0.031-0.01-0.067-0.026-0.098-0.036c-4.745-1.715-9.129-4.174-13.011-7.24c-0.077-0.062-0.149-0.123-0.226-0.185
				c-0.046-0.035-0.092-0.071-0.139-0.113c-0.035-0.025-0.076-0.057-0.112-0.087c-0.313-0.251-0.622-0.508-0.924-0.77
				c-0.703-0.606-1.392-1.228-2.064-1.869c-0.005,0-0.005-0.006-0.01-0.01c-2.911-2.804-5.463-5.979-7.568-9.454
				c-0.021-0.041-0.046-0.081-0.067-0.118c-0.046-0.076-0.092-0.154-0.133-0.23C6.08,67.17,3.744,59.617,3.466,51.54
				c-0.004-0.066-0.004-0.133-0.004-0.199c-0.021-0.488-0.026-0.971-0.026-1.458c0-15.614,7.671-29.437,19.45-37.909
				c0.083-0.061,0.165-0.118,0.247-0.174c1.361-0.97,2.778-1.864,4.247-2.681c1.355-0.765,2.757-1.458,4.194-2.08
				c0.499-0.215,1.001-0.42,1.509-0.621c3.122-1.222,6.408-2.121,9.813-2.645c0.919-0.144,1.854-0.262,2.792-0.349
				c0.093-0.01,0.191-0.02,0.283-0.025c1.366-0.124,2.742-0.186,4.139-0.186c8.364,0,16.21,2.197,22.998,6.054
				c0.041,0.021,0.077,0.042,0.112,0.062c0.072,0.041,0.146,0.082,0.212,0.123c0.035,0.021,0.071,0.042,0.106,0.067
				c3.41,1.977,6.547,4.379,9.335,7.131c0.037,0.032,0.067,0.063,0.099,0.098c0.035,0.036,0.076,0.077,0.113,0.113
				c0.03,0.031,0.062,0.062,0.092,0.097C91.587,25.395,96.778,37.03,96.778,49.882z"/>
		</g>
		<g>
			<g>
				<path fill="#FFECE1" d="M26.721,11.845c-1.155,0.031-2.346,0.061-3.496,0.277c0.082-0.062,0.164-0.118,0.246-0.175
					c1.073-0.174,2.177-0.205,3.245-0.231c0.77-0.021,1.566-0.041,2.337-0.118c5.473-0.519,10.259-3.646,14.885-6.67
					c0.693-0.452,1.387-0.909,2.09-1.355c0.092-0.011,0.189-0.021,0.282-0.025c-0.775,0.487-1.541,0.991-2.3,1.489
					c-4.642,3.029-9.438,6.167-14.947,6.69C28.288,11.804,27.491,11.824,26.721,11.845z"/>
			</g>
			<g>
				<path fill="#FFECE1" d="M73.56,9.478c-0.473,1.068-1.141,2.039-1.915,2.813c-2.275,2.286-5.453,3.481-8.519,4.514
					c-2.901,0.98-5.874,1.905-8.755,2.803c-7.168,2.233-14.582,4.539-21.452,7.846C21.407,32.989,11.348,41.405,3.806,51.689
					C3.8,51.623,3.8,51.557,3.8,51.489c7.543-10.244,17.582-18.628,29.062-24.153c6.88-3.307,14.3-5.617,21.473-7.851
					c2.875-0.893,5.854-1.823,8.75-2.798c3.05-1.027,6.213-2.223,8.473-4.488c0.765-0.765,1.427-1.73,1.889-2.783
					C73.488,9.437,73.523,9.457,73.56,9.478z"/>
			</g>
			<g>
				<path fill="#FFECE1" d="M19.811,59.516c-0.396,0.902-0.802,1.838-1.223,2.735c-2.162,4.616-4.898,8.652-8.077,11.949
					c-0.021-0.042-0.046-0.083-0.067-0.118c3.158-3.282,5.879-7.297,8.026-11.888c0.42-0.897,0.826-1.827,1.222-2.73
					c1.721-3.928,3.491-7.985,6.86-10.619c2.557-1.998,5.741-2.927,8.821-3.82c1.705-0.498,3.471-1.017,5.119-1.705
					c4.462-1.875,8.298-5.186,10.798-9.33c0.591-0.98,1.126-2.028,1.644-3.044c1.238-2.429,2.516-4.935,4.652-6.66
					c2.865-2.305,6.665-2.778,10.342-3.229c0.723-0.092,1.463-0.18,2.182-0.288c4.56-0.657,8.96-1.992,13.104-3.969
					c0.035,0.031,0.066,0.062,0.097,0.097c-4.169,1.993-8.601,3.337-13.18,4c-0.719,0.103-1.464,0.195-2.183,0.288
					c-3.661,0.452-7.445,0.914-10.279,3.204c-2.115,1.705-3.39,4.2-4.621,6.613c-0.519,1.022-1.053,2.075-1.648,3.055
					c-2.516,4.165-6.372,7.497-10.86,9.382c-1.653,0.693-3.419,1.206-5.129,1.704c-3.07,0.899-6.244,1.823-8.775,3.805
					C23.292,51.557,21.52,55.603,19.811,59.516z"/>
			</g>
			<g>
				<path fill="#FFECE1" d="M94.967,57.883c0.467,0.164,0.928,0.354,1.385,0.568c0,0.047-0.01,0.093-0.02,0.135
					c-0.468-0.222-0.935-0.411-1.407-0.581c-4.087-1.448-8.508-0.774-11.261,1.721c-3.337,3.024-3.773,7.794-4.194,12.41
					c-0.133,1.428-0.268,2.906-0.488,4.303c-0.857,5.411-3.338,10.613-7.116,15.064c-0.103,0.057-0.211,0.108-0.319,0.165
					c3.893-4.493,6.439-9.767,7.308-15.251c0.221-1.391,0.354-2.863,0.488-4.297c0.426-4.637,0.861-9.432,4.24-12.492
					C86.365,57.107,90.832,56.419,94.967,57.883z"/>
			</g>
			<g>
				<path fill="#FFECE1" d="M97.117,50.226c0,0.046,0,0.092-0.006,0.139c-3.753,1.452-8.092,1.504-12.327,1.561l-0.545,0.005
					c-14.922,0.2-26.448,2.28-36.271,6.547c-12.307,5.345-21.74,14.525-25.873,25.19c-0.359,0.93-0.663,1.839-0.904,2.722
					c-0.036-0.026-0.077-0.057-0.113-0.088c0.247-0.873,0.544-1.761,0.899-2.68c4.144-10.695,13.602-19.901,25.94-25.263
					c9.844-4.276,21.381-6.356,36.322-6.557l0.545-0.005C89.02,51.741,93.368,51.689,97.117,50.226z"/>
			</g>
		</g>
		<g>
			<g>
				<g>
					<path fill="#B03D91" d="M31.056,11.949c0,0,4.807-2.709,11.362-0.35c6.555,2.359,10.925,9.613,15.994,13.983
						s9.526,5.594,8.39,7.866c-1.136,2.272-7.341,2.622-13.196,6.118c-5.855,3.496-9.439,9.789-9.439,9.789s1.049-7.517-5.943-9.002
						c-6.992-1.485-13.546-0.087-11.886-5.331s3.321-5.855,2.098-9.613C27.211,21.65,25.725,15.62,31.056,11.949z"/>
				</g>
				<g opacity="0.49">
					<path fill="#5A2250" d="M31.056,11.949c0,0,4.807-2.709,11.362-0.35c6.555,2.359,10.925,9.613,15.994,13.983
						s9.526,5.594,8.39,7.866c-1.136,2.272-7.341,2.622-13.196,6.118c-5.855,3.496-9.439,9.789-9.439,9.789s1.049-7.517-5.943-9.002
						c-6.992-1.485-13.546-0.087-11.886-5.331s3.321-5.855,2.098-9.613C27.211,21.65,25.725,15.62,31.056,11.949z"/>
				</g>
			</g>
			<g>
				<g>
					<g>
						<path fill="#FF8D9E" d="M79.434,49.574l-49.426,2.927c0,0,1.571-9.438,6.86-11.404c5.288-1.967,11.275-3.63,11.275-3.63
							l-0.323-1.017l-0.375-1.191l-0.246-0.786l-0.005-0.021l-0.36-1.135l6.85-9.422l0.489-0.673l2.679,7.938l0.904,2.681
							c0,0,16.041,1.751,18.572,3.717C78.862,39.521,79.434,49.574,79.434,49.574z"/>
					</g>
					<g opacity="0.42">
						<path fill="#5A2250" d="M52.749,29.405c-0.021,1.582-0.222,3.168-0.781,4.647c-0.293,0.781-0.672,1.55-1.293,2.11
							c-0.617,0.559-1.51,0.868-2.301,0.606c-0.195-0.067-0.38-0.18-0.555-0.318l-0.375-1.191l-0.246-0.786
							C49.354,33.174,51.26,31.444,52.749,29.405z"/>
					</g>
				</g>
				<g>
					<path fill="#5A2250" d="M79.434,49.574l-49.426,2.927c0,0,1.571-9.438,6.86-11.404c5.288-1.967,11.275-3.63,11.275-3.63
						l-0.698-2.208c3.117-1.396,6.254-2.762,9.406-4.098l0.904,2.681c0,0,16.041,1.751,18.572,3.717
						C78.862,39.521,79.434,49.574,79.434,49.574z"/>
				</g>
				<g>
					<g>
						<path fill="#FF8D9E" d="M53.955,26.936c0.328,4.329-7.409,8.591-11.142,8.852c-2.634,0.185-5.951-5.422-7.676-8.75
							c-0.236-0.452-0.441-0.862-0.611-1.211c-0.185-0.329-0.344-0.673-0.488-1.022c-0.051-0.103-0.078-0.159-0.078-0.159
							l0.016-0.005c-0.004-0.016-0.016-0.036-0.021-0.051c-0.452-1.171-0.713-2.45-0.713-3.779c0-5.253,3.866-9.597,8.913-10.341
							c0.504-0.072,1.017-0.113,1.541-0.113c5.31,0,9.684,3.949,10.362,9.068c0.062,0.452,0.091,0.914,0.091,1.387
							c0,1.114-0.174,2.182-0.496,3.188C53.771,24.923,53.879,25.914,53.955,26.936z"/>
					</g>
					<g>
						<g>
							<g>
								<circle fill="#5A2250" cx="42.768" cy="24.49" r="0.83"/>
							</g>
							<g>
								<circle fill="#5A2250" cx="36.977" cy="27.397" r="0.83"/>
							</g>
							<g>
								<path fill="#5A2250" d="M40.556,21.229c-0.135,0.11-0.266,0.228-0.357,0.376c-0.158,0.256-0.177,0.58-0.113,0.874
									s0.206,0.564,0.354,0.826c0.061,0.107,0.125,0.217,0.226,0.289c0.167,0.12,0.393,0.109,0.597,0.084
									c0.701-0.084,1.39-0.269,2.039-0.546c0.335-0.144,0.681-0.33,0.854-0.652c0.212-0.4,0.097-0.904-0.139-1.29
									c-0.208-0.343-0.512-0.634-0.884-0.787C42.195,20.016,41.256,20.659,40.556,21.229z"/>
							</g>
							<g>
								<path fill="#5A2250" d="M37.175,24.964c-0.021,0.282-0.195,0.529-0.375,0.755c-0.406,0.523-0.863,1.063-1.494,1.273
									c-0.057,0.021-0.113,0.036-0.169,0.046c-0.236-0.452-0.441-0.862-0.611-1.211c-0.185-0.329-0.344-0.673-0.488-1.022
									c-0.051-0.103-0.078-0.159-0.078-0.159l0.016-0.005c-0.004-0.016-0.016-0.036-0.021-0.051
									c0.385-0.437,0.837-0.816,1.34-1.114c0.18-0.108,0.38-0.206,0.595-0.211c0.242,0,0.468,0.134,0.637,0.308
									c0.17,0.175,0.283,0.39,0.401,0.606C37.062,24.42,37.195,24.687,37.175,24.964z"/>
							</g>
						</g>
						<g>
							<g>
								<path fill="#5A2250" d="M43.054,28.05c-0.215-0.344-0.539-0.611-0.914-0.765c-0.082-0.031-0.179-0.062-0.271-0.025
									c-0.139,0.051-0.201,0.21-0.18,0.436c0.046,0.421,0.18,0.837,0.395,1.207c-0.59,0.308-1.196,0.596-1.808,0.863
									c-0.062,0.025-0.128,0.056-0.195,0.051c-0.118-0.01-0.2-0.123-0.277-0.241c-0.847-1.34-1.495-2.788-1.926-4.308
									c-0.015-0.041-0.026-0.083-0.036-0.128c-0.036-0.119-0.067-0.236-0.098-0.354c-0.01-0.031-0.042-0.051-0.082-0.046
									c-0.031,0.01-0.052,0.046-0.046,0.082c0.031,0.123,0.067,0.241,0.103,0.364c0.01,0.042,0.021,0.087,0.036,0.128
									c0.441,1.526,1.088,2.979,1.941,4.329c0.087,0.144,0.2,0.288,0.375,0.303h0.025c0.087,0,0.165-0.036,0.231-0.061
									c0.853-0.375,1.7-0.791,2.511-1.243c0.139-0.077,0.297-0.185,0.297-0.359C43.136,28.193,43.096,28.117,43.054,28.05z
									 M42.777,28.527c-0.19,0.108-0.385,0.211-0.576,0.313c-0.21-0.354-0.344-0.75-0.385-1.155
									c-0.005-0.062-0.016-0.262,0.098-0.309c0.01-0.005,0.025-0.005,0.046-0.005c0.041,0,0.087,0.015,0.133,0.031
									c0.349,0.144,0.652,0.395,0.853,0.714c0.031,0.051,0.062,0.107,0.062,0.165C43.008,28.389,42.885,28.471,42.777,28.527z"/>
							</g>
							<g>
								<path fill="#5A2250" d="M41.425,30.341c-0.032,0-0.058-0.022-0.064-0.054c-0.006-0.035,0.019-0.068,0.053-0.073
									c1.05-0.17,2.013-0.905,2.454-1.872c0.014-0.032,0.053-0.046,0.084-0.031c0.032,0.014,0.046,0.052,0.032,0.085
									c-0.464,1.021-1.442,1.766-2.55,1.945C41.431,30.341,41.428,30.341,41.425,30.341z"/>
							</g>
						</g>
					</g>
					<g>
						<g>
							<path fill="#5A2250" d="M54.059,19.423c-0.457,0.062-0.91,0.149-1.31,0.36c-0.515,0.267-0.935,0.785-0.914,1.365
								c0.005,0.093,0.015,0.196-0.046,0.262c-0.042,0.046-0.104,0.066-0.164,0.077c-0.606,0.107-1.212-0.313-1.516-0.852
								c-0.303-0.54-0.369-1.176-0.426-1.787c-0.56,0.498-1.17,1.016-1.916,1.083c-0.832,0.072-1.622-0.483-2.033-1.207
								c-0.416-0.724-0.503-1.586-0.478-2.418c-0.39,0.518-1.134,0.688-1.746,0.487c-0.611-0.195-1.088-0.708-1.366-1.289
								c-0.272-0.58-0.364-1.232-0.39-1.879c-0.046-1.047,0.067-2.105,0.339-3.116l0.061-0.042c0.504-0.072,1.017-0.113,1.541-0.113
								C49.006,10.355,53.38,14.304,54.059,19.423z"/>
						</g>
						<g>
							<path fill="#5A2250" d="M33.943,12.918c-1.805,1.05-3.451,2.552-4.146,4.521c-0.289,0.818-0.371,1.821,0.202,2.472
								c0.457,0.519,1.244,0.669,1.906,0.469c-0.794,0.77-1.345,1.788-1.555,2.874c-0.125,0.65-0.125,1.351,0.169,1.945
								c0.294,0.593,0.935,1.045,1.593,0.971c0.729-0.083,1.251-0.742,1.585-1.396c0.641-1.253,0.911-2.658,1.172-4.042
								c0.271,0.606,0.658,1.229,1.286,1.443c0.403,0.137,0.851,0.082,1.254-0.058c1.127-0.389,1.968-1.404,2.339-2.537
								c0.372-1.133,0.318-2.369,0.062-3.533c0.242,0.344,0.745,0.426,1.139,0.279c0.394-0.147,0.693-0.474,0.93-0.821
								c0.489-0.716,0.761-1.57,0.808-2.434c0.035-0.667-0.007-1.852-0.486-2.386c-0.479-0.535-1.751-0.046-2.36,0.078
								c-0.952,0.195-1.894,0.442-2.813,0.758C35.959,11.89,34.92,12.349,33.943,12.918z"/>
						</g>
						<g>
							<g>
								<path fill="#FF8D9E" d="M52.831,19.588c0.897-0.396,2.007-0.305,2.791,0.283c0.514,0.384,0.873,0.955,1.051,1.572
									c0.357,1.24-0.073,2.698-1.114,3.462s-2.636,0.705-3.55-0.206C50.451,23.146,50.776,20.494,52.831,19.588z"/>
							</g>
							<g>
								<path fill="#5A2250" d="M53.894,24.349c-0.054,0-0.104-0.034-0.121-0.088c-0.198-0.594-0.418-1.378-0.373-2.175
									c0.049-0.832,0.393-1.561,0.946-2c0.054-0.044,0.137-0.035,0.18,0.021c0.044,0.055,0.034,0.136-0.021,0.18
									c-0.495,0.394-0.803,1.055-0.847,1.814c-0.044,0.753,0.169,1.506,0.359,2.079c0.021,0.067-0.016,0.14-0.081,0.162
									C53.921,24.347,53.907,24.349,53.894,24.349z"/>
							</g>
							<g>
								<path fill="#5A2250" d="M53.84,24.346c-0.068,0-0.125-0.055-0.127-0.125c-0.035-1.105,0.604-2.182,1.591-2.68
									c0.063-0.031,0.14-0.007,0.173,0.057c0.031,0.063,0.006,0.141-0.058,0.172c-0.884,0.447-1.48,1.451-1.45,2.443
									c0.002,0.071-0.054,0.13-0.124,0.132C53.844,24.346,53.842,24.346,53.84,24.346z"/>
							</g>
						</g>
					</g>
				</g>
			</g>
			<g>
				<path fill="#6B83FF" d="M89.605,74.745c-1.325,2.104-2.814,4.087-4.442,5.944c-0.221,0.247-0.44,0.499-0.667,0.74
					c-0.221,0.246-0.452,0.487-0.678,0.724c-0.246,0.257-0.498,0.509-0.75,0.76c-0.646,0.653-1.313,1.278-2.002,1.885
					c-0.047,0.041-0.092,0.082-0.139,0.123c-0.467,0.406-0.935,0.813-1.423,1.206c-0.287,0.236-0.579,0.468-0.872,0.688
					c-0.108,0.088-0.216,0.17-0.324,0.252c-0.18,0.139-0.364,0.277-0.554,0.417c-0.211,0.158-0.427,0.313-0.642,0.461
					c-0.288,0.211-0.581,0.41-0.879,0.611c-0.744,0.509-1.51,0.991-2.29,1.453c-0.236,0.144-0.478,0.288-0.719,0.421
					c-0.272,0.159-0.555,0.313-0.837,0.468c-0.015,0.01-0.031,0.015-0.046,0.024c-0.104,0.057-0.205,0.113-0.309,0.165
					c-0.169,0.093-0.339,0.18-0.508,0.268c-0.118,0.062-0.237,0.123-0.354,0.18c-0.246,0.128-0.498,0.251-0.75,0.374
					c-0.528,0.258-1.058,0.499-1.597,0.734c-0.211,0.093-0.421,0.186-0.637,0.272c-0.236,0.103-0.473,0.2-0.714,0.292
					c-0.179,0.078-0.354,0.145-0.534,0.211c-0.302,0.123-0.601,0.236-0.908,0.344c-0.067,0.025-0.134,0.052-0.206,0.072
					c-0.375,0.139-0.749,0.268-1.13,0.391c-4.59,1.51-9.493,2.325-14.587,2.325c-3.152,0-6.229-0.313-9.206-0.913
					c-2.167-0.431-4.283-1.012-6.332-1.736c-0.082-0.03-0.164-0.057-0.246-0.087c-0.031-0.01-0.067-0.026-0.098-0.036
					c-4.745-1.715-9.129-4.174-13.011-7.24c-0.077-0.062-0.149-0.123-0.226-0.185c-0.046-0.035-0.092-0.071-0.139-0.113
					c-0.035-0.025-0.076-0.057-0.112-0.087c-0.313-0.251-0.622-0.508-0.924-0.77l2.044-6.706c0,0,0,0,0.005,0l0.365-1.207
					l0.082-0.262l0.042-0.134l0.288-0.934l0.041-0.14l0.062-0.205l1.633-5.345l0.519-1.711l0.56-1.837l0.046-0.139l0.509-1.675
					l0.041-0.128l0.539-1.762l0.025-0.097l0.042-0.129l0.642-2.1l2.274-7.455c-1.258-0.345-3.347-1.018-5.314-2.091
					c-0.041-0.021-0.077-0.041-0.113-0.062c-2.604-1.443-4.96-3.594-4.888-6.634c0.174-7.342,2.013-8.652,4.811-11.276
					c0.996-0.934,1.941-1.781,2.726-2.608c0.103-0.113,0.206-0.22,0.308-0.329c0.899-1.006,1.546-1.987,1.741-3.081
					c0.072-0.396,0.087-0.801,0.031-1.232c0,0,0.226,1.181-0.108,3.353c-0.005,0.052-0.016,0.108-0.026,0.165
					c-0.128,0.801-0.333,1.726-0.652,2.773c-1.227,4.021-2.013,4.631,0.35,5.422c2.007,0.668,7.763,0.832,10.936,2.382
					c0,0,0.005-0.005,0.005,0c0.549,0.267,1.022,0.576,1.381,0.935c0.138,0.144,0.277,0.293,0.411,0.458
					c0.262,0.323,0.503,0.688,0.729,1.073c0.02,0.036,0.041,0.072,0.062,0.107c1.237,2.172,1.895,5.022,2.121,6.12l0.128-0.02
					l0.062-0.011c0.395-1.586,2.023-6.623,7.147-8.6c0.78-0.303,1.628-0.596,2.506-0.883c4.467-1.463,9.766-2.804,11.671-4.498
					c0.246-0.211,0.431-0.437,0.555-0.663c0.211-0.385,0.235-0.786,0.041-1.211c-0.657-1.428-2.486-3.117-4.725-5.058
					c0,0-0.005-0.005-0.01-0.011c-1.232-1.063-2.588-2.208-3.938-3.43c-0.036-0.031-0.066-0.061-0.098-0.087
					c-0.293-0.267-0.585-0.539-0.878-0.812c-0.539-0.498-1.067-1.011-1.586-1.54c-0.062-0.062-0.118-0.118-0.175-0.18
					c-0.222-0.226-0.432-0.447-0.643-0.678c-0.071-0.072-0.133-0.143-0.199-0.215c-0.062-0.062-0.118-0.128-0.187-0.195
					c-0.133-0.154-0.271-0.308-0.41-0.467c-0.092-0.107-0.189-0.215-0.286-0.318c-0.032-0.037-0.063-0.072-0.094-0.108
					c-0.051-0.057-0.098-0.108-0.149-0.16c-0.029-0.036-0.065-0.072-0.102-0.107c-0.271-0.293-0.56-0.581-0.863-0.873
					c0,0-0.005,0-0.005-0.005c-2.393-2.296-5.586-4.482-9.155-5.792c-0.309-0.113-0.616-0.221-0.93-0.318
					c-1.14-0.364-2.31-0.632-3.502-0.776c-0.605-0.082-1.222-0.128-1.837-0.138c-2.188-0.046-4.411,0.333-6.604,1.284L29.832,13
					c0,0,0.227-0.231,0.638-0.616c0.02-0.016,0.041-0.037,0.061-0.052c0.303-0.288,0.698-0.647,1.171-1.058
					c0.072-0.062,0.144-0.128,0.221-0.19c2.998-2.593,8.744-6.942,13.956-7.415c0.092-0.01,0.184-0.021,0.277-0.026
					c0.416-0.025,0.832-0.025,1.243,0c6.634,0.447,7.229,2.419,10.347,5.7c0.144,0.148,0.287,0.297,0.44,0.451
					c0.426,0.432,0.904,0.889,1.449,1.366c0.061,0.051,0.118,0.103,0.185,0.159c0.194,0.169,0.405,0.344,0.626,0.524
					c1.422,1.145,3.302,2.455,5.381,3.851c0.041,0.026,0.088,0.057,0.129,0.087c1.694,1.129,3.518,2.315,5.33,3.512
					c0.509,0.333,1.011,0.667,1.51,1.001c0.051,0.031,0.103,0.066,0.153,0.103c0.18,0.118,0.36,0.236,0.539,0.354
					c0.534,0.364,1.068,0.723,1.587,1.078c0.005,0.005,0.016,0.01,0.021,0.01c0.241,0.169,0.472,0.328,0.708,0.493
					c2.83,1.961,5.314,3.84,6.819,5.432c4.544,4.807,5.067,8.39,2.711,12.498c-1.35,2.347-2.101,3.579-2.491,4.205l2.619,7.318
					l0.042,0.128l1.392,3.887c0.205,0.575,0.4,1.15,0.58,1.735c0.011,0.042,0.025,0.082,0.035,0.123
					c0.616,2.007,1.084,4.066,1.397,6.146c0.005,0.02,0.01,0.046,0.01,0.066c0.231,1.515,0.375,3.045,0.432,4.58L89.605,74.745z"/>
			</g>
			<g>
				<g>
					<g>
						<path fill="#FF8D9E" d="M41.457,64.476c0,0-5.855-2.315-10.182-3.278c-4.326-0.961-11.668,0.438-11.712,1.137
							c-0.043,0.699-0.043,1.835,0.219,1.791c0.263-0.043,0.263-0.043,0.263-0.043s-0.568,0.131-0.568,0.655
							s0.131,3.321,0.481,3.408c0.349,0.088,0.83,0,0.83,0s-0.043,1.617,0.306,1.705s4.501-1.749,7.079-1.485
							c2.579,0.262,9.92,4.456,9.92,4.456L41.5,64.3L41.457,64.476z"/>
					</g>
					<g>
						<g>
							<path fill="#5A2250" d="M20.787,68.21c-0.025,0-0.049-0.015-0.059-0.039c-0.013-0.033,0.002-0.071,0.034-0.084
								c0.034-0.014,3.39-1.382,6.425-1.49c0.001,0,0.002,0,0.002,0c0.035,0,0.063,0.026,0.064,0.062
								c0.001,0.035-0.026,0.065-0.062,0.066c-3.013,0.107-6.347,1.467-6.38,1.48C20.804,68.209,20.795,68.21,20.787,68.21z"/>
						</g>
						<g>
							<path fill="#5A2250" d="M19.651,66.31c-0.025,0-0.05-0.017-0.06-0.041c-0.013-0.034,0.004-0.07,0.037-0.083
								c0.041-0.017,4.161-1.596,7.635-1.141c0.035,0.005,0.059,0.037,0.055,0.072s-0.032,0.06-0.072,0.056
								c-3.439-0.453-7.531,1.115-7.572,1.133C19.667,66.309,19.659,66.31,19.651,66.31z"/>
						</g>
						<g>
							<path fill="#5A2250" d="M19.87,64.212c-0.025,0-0.05-0.015-0.059-0.039c-0.015-0.033,0.001-0.07,0.034-0.084
								s3.402-1.4,7.35-1.076c0.035,0.003,0.062,0.034,0.059,0.069c-0.003,0.033-0.031,0.06-0.064,0.06
								c-0.001,0-0.003,0-0.005-0.001c-3.917-0.322-7.256,1.053-7.29,1.066C19.885,64.21,19.877,64.212,19.87,64.212z"/>
						</g>
						<g>
							<path fill="#5A2250" d="M20.549,62.256c-0.298-0.189-0.709-0.03-0.724-0.024c-0.025,0.01-0.041,0.036-0.041,0.062
								l0.067,1.463c0,0.021,0.004,0.037,0.02,0.047c0.011,0.01,0.026,0.015,0.042,0.015h0.005c0.01,0,0.98-0.103,0.914-1.006
								C20.811,62.544,20.714,62.359,20.549,62.256z M19.974,63.679l-0.061-1.345c0.107-0.031,0.375-0.088,0.57,0.03
								c0.128,0.083,0.201,0.236,0.221,0.457C20.75,63.479,20.174,63.644,19.974,63.679z"/>
						</g>
						<g>
							<path fill="#5A2250" d="M20.832,64.974c-0.021-0.263-0.118-0.453-0.283-0.556c-0.298-0.185-0.709-0.03-0.724-0.025
								c-0.025,0.011-0.041,0.036-0.041,0.062l0.062,1.31l0.005,0.154c0,0.02,0.004,0.036,0.02,0.046
								c0.011,0.011,0.026,0.016,0.042,0.016h0.005c0.01,0,0.909-0.098,0.918-0.903C20.836,65.045,20.836,65.01,20.832,64.974z
								 M20.703,65.163c-0.062,0.508-0.544,0.642-0.729,0.683l-0.01-0.18l-0.051-1.165c0.107-0.031,0.375-0.093,0.57,0.025
								c0.128,0.083,0.201,0.236,0.221,0.457c0.005,0.062,0.005,0.123,0,0.175V65.163z"/>
						</g>
						<g>
							<path fill="#5A2250" d="M21.207,66.852c-0.046-0.261-0.154-0.441-0.329-0.528c-0.313-0.159-0.709,0.031-0.724,0.042
								c-0.025,0.01-0.041,0.035-0.036,0.062l0.195,1.453c0,0.02,0.01,0.035,0.026,0.045c0.01,0.005,0.025,0.012,0.036,0.012
								c0.005,0,0.011,0,0.011,0C20.395,67.937,21.355,67.745,21.207,66.852z M20.431,67.792l-0.18-1.33
								c0.103-0.041,0.364-0.128,0.569-0.025c0.134,0.071,0.222,0.216,0.257,0.437C21.186,67.52,20.626,67.735,20.431,67.792z"/>
						</g>
						<g>
							<path fill="#5A2250" d="M22.172,68.655c-0.036-0.19-0.128-0.329-0.277-0.411c-0.333-0.185-0.837,0.005-0.857,0.015
								c-0.025,0.011-0.041,0.037-0.041,0.067l0.185,1.222c0,0.016,0.01,0.031,0.026,0.041c0.01,0.011,0.021,0.011,0.036,0.011
								c0.005,0,0.005,0,0.01,0c0.021-0.005,0.576-0.099,0.822-0.447C22.177,69.009,22.208,68.84,22.172,68.655z M21.972,69.08
								c-0.17,0.247-0.534,0.35-0.678,0.386l-0.165-1.108c0.123-0.036,0.473-0.135,0.708-0.006c0.113,0.067,0.185,0.17,0.216,0.328
								C22.079,68.829,22.054,68.962,21.972,69.08z"/>
						</g>
					</g>
				</g>
				<g>
					<g>
						<circle fill="#FFECE1" cx="27.833" cy="75.345" r="5.998"/>
					</g>
					<g>
						<g>
							<path fill="#FF8D9E" d="M23.738,77.081c-0.154,0.328-1.227,1.072-1.227,1.072l0.503,0.786c0,0-1.386-0.077-2.244-0.935
								c-0.437-0.432-0.385-1.15,0.098-1.531c0.118-0.091,0.241-0.189,0.37-0.281c0.092-0.072,0.185-0.139,0.272-0.2
								c0-0.005,0.005-0.005,0.005-0.005c0.205-0.144,0.396-0.273,0.549-0.354c0.046-0.025,0.087-0.047,0.128-0.062
								c0.087-0.042,0.155-0.057,0.19-0.042C22.645,75.664,23.892,76.757,23.738,77.081z"/>
						</g>
						<g>
							<path fill="#FF8D9E" d="M35.84,76.516c0,0.026,0,0.098-0.011,0.2c-0.005,0.036-0.01,0.072-0.015,0.112
								c-0.021,0.181-0.051,0.438-0.098,0.725c-0.01,0.047-0.021,0.099-0.025,0.144c-0.19,1.079-0.544,2.567-1.073,3.123
								c-0.58,0.605-1.355,0.795-1.776,0.847c-0.026,0.005-0.052,0.005-0.077,0.01c-0.01,0.017-0.025,0.036-0.037,0.052
								c-0.246,0.339-0.523,0.58-0.821,0.642c-1.304,0.293-2.352-0.011-2.804-0.775c-0.015-0.015-0.025-0.031-0.036-0.051
								c-0.015,0.015-0.036,0.031-0.052,0.041c-0.585,0.492-1.313,0.847-2.11,0.61c-1.946-0.57-1.53-1.463-1.53-1.463
								s2.798-2.249,3.24-2.526c0.031-0.021,0.052-0.031,0.057-0.031c0.066,0.017,0.985,0.925,1.463,1.396
								c0.123,0.123,0.17,0.298,0.139,0.463l0.041-0.047c0,0,0.015-0.03,0.046-0.092c0.242-0.442,1.273-2.368,1.546-2.665
								c0.02-0.021,0.036-0.036,0.046-0.036c0.107-0.031,0.996,0.016,1.627,0.148c0.006-0.024,0.011-0.051,0.016-0.076
								c0.072-0.298,0.19-0.678,0.344-0.73C34.202,76.449,35.82,76.294,35.84,76.516z"/>
						</g>
						<g>
							<g>
								<g>
									<path fill="#5A2250" d="M22.912,76.249h-0.005c-0.072-0.088-0.144-0.169-0.226-0.247c-0.149-0.158-0.313-0.303-0.488-0.431
										c-0.041,0.015-0.082,0.036-0.128,0.062c0.206,0.149,0.395,0.317,0.575,0.509c0.062,0.062,0.118,0.123,0.175,0.189
										c0.098,0.118,0.123,0.277,0.071,0.431c-0.051,0.149-0.174,0.258-0.328,0.288c-0.072,0.017-0.139,0.025-0.206,0.025
										c-0.092,0.011-0.174,0.011-0.257,0c-0.108,0-0.206-0.021-0.293-0.056c-0.165-0.062-0.375-0.18-0.457-0.386
										c-0.087-0.222,0.016-0.462,0.139-0.615c0.004-0.012,0.016-0.022,0.025-0.026c-0.087,0.062-0.18,0.128-0.272,0.2
										c-0.057,0.148-0.077,0.323-0.01,0.487c0.098,0.252,0.339,0.391,0.528,0.458c0.113,0.04,0.242,0.066,0.38,0.071
										c0.021,0.005,0.046,0.005,0.072,0.005c0.031,0,0.066,0,0.102-0.005c0.087-0.005,0.18-0.016,0.273-0.031
										c0.195-0.04,0.354-0.18,0.426-0.375C23.076,76.608,23.04,76.402,22.912,76.249z"/>
								</g>
							</g>
							<g>
								<g>
									<path fill="#5A2250" d="M30.125,79.956l-1.396-1.376c-0.011-0.016-0.025-0.021-0.041-0.021
										c-0.011,0-0.036,0.005-0.052,0.021c-0.021,0.025-0.523,0.585-0.478,1.175c0.021,0.263,0.144,0.488,0.37,0.673
										c0.206,0.16,0.416,0.242,0.626,0.242c0.046,0,0.092,0,0.139-0.011c0.503-0.088,0.827-0.605,0.842-0.626
										C30.151,80.007,30.146,79.976,30.125,79.956z M29.273,80.536c-0.221,0.035-0.447-0.036-0.662-0.211
										c-0.195-0.158-0.309-0.354-0.323-0.58c-0.037-0.437,0.282-0.878,0.405-1.026l1.304,1.288
										C29.91,80.131,29.638,80.47,29.273,80.536z"/>
								</g>
							</g>
							<g>
								<g>
									<path fill="#5A2250" d="M33.72,77.871c0-0.025-0.021-0.052-0.046-0.057l-0.35-0.062l-1.33-0.227
										c-0.015,0-0.031,0-0.046,0.012c-0.01,0.01-0.021,0.025-0.021,0.04c-0.004,0.026-0.082,0.678,0.247,1.079
										c0.118,0.144,0.272,0.236,0.467,0.271v0.005c0.041,0.006,0.083,0.011,0.129,0.017c0.031,0,0.061,0.005,0.087,0.005
										c0.236,0,0.431-0.078,0.575-0.216C33.75,78.426,33.725,77.893,33.72,77.871z M33.355,78.657
										c-0.139,0.138-0.329,0.2-0.575,0.18c-0.021,0-0.041-0.005-0.062-0.011c-0.19-0.021-0.344-0.103-0.462-0.242
										c-0.241-0.298-0.231-0.77-0.22-0.933l1.242,0.21l0.334,0.056C33.612,78.051,33.586,78.432,33.355,78.657z"/>
								</g>
							</g>
							<g>
								<g>
									<path fill="#5A2250" d="M29.068,81.608c-0.014,0-0.028-0.005-0.041-0.015c-0.027-0.022-0.031-0.063-0.009-0.091
										c0.147-0.18,0.281-0.34,0.402-0.486c0.556-0.669,0.835-1.005,0.823-1.21c-0.009-0.157-0.826-0.928-1.61-1.583
										c-0.027-0.022-0.031-0.063-0.007-0.089c0.022-0.028,0.063-0.032,0.09-0.009c0.273,0.229,1.639,1.381,1.656,1.673
										c0.015,0.257-0.257,0.583-0.852,1.3c-0.12,0.146-0.254,0.307-0.402,0.486C29.105,81.6,29.087,81.608,29.068,81.608z"/>
								</g>
							</g>
							<g>
								<g>
									<path fill="#5A2250" d="M32.766,81.741c-0.009,0-0.018-0.002-0.025-0.006c-0.033-0.014-0.048-0.052-0.033-0.084
										c0.006-0.015,0.68-1.559,0.833-2.111c0.175-0.634,0.293-1.241,0.361-1.641c0.039-0.226-0.1-0.448-0.315-0.506
										c-0.657-0.175-1.622-0.139-1.631-0.138c-0.033,0-0.065-0.026-0.066-0.062c-0.001-0.036,0.025-0.065,0.062-0.066
										c0.039-0.002,0.993-0.037,1.668,0.143c0.284,0.074,0.46,0.354,0.41,0.65c-0.069,0.401-0.188,1.015-0.365,1.652
										c-0.154,0.563-0.81,2.065-0.838,2.13C32.814,81.728,32.79,81.741,32.766,81.741z"/>
								</g>
							</g>
							<g>
								<g>
									<path fill="#5A2250" d="M35.814,76.828l-1.427,0.113c0.026,0.14,0.062,0.263,0.154,0.376
										c0.042,0.056,0.103,0.107,0.185,0.164c0.195,0.128,0.405,0.189,0.601,0.185c0.144,0,0.282-0.041,0.39-0.113
										c-0.01,0.047-0.021,0.099-0.025,0.144c-0.108,0.052-0.231,0.078-0.36,0.082h-0.02c-0.216,0-0.437-0.065-0.647-0.205
										c-0.092-0.062-0.164-0.118-0.215-0.185c-0.113-0.154-0.154-0.308-0.18-0.487c-0.005-0.016,0-0.031,0.01-0.042
										c0.01-0.015,0.021-0.02,0.036-0.02l1.514-0.124C35.825,76.752,35.82,76.788,35.814,76.828z"/>
								</g>
							</g>
						</g>
					</g>
				</g>
			</g>
			<g>
				<path fill="#5A2250" d="M70.72,44.039l-3.265,6.244l-1.562,2.978l-0.071,0.139l-8.478,16.205
					c-0.016,0.031-0.042,0.057-0.078,0.062c-0.035,0.01-0.071,0.006-0.102-0.016l-13.787-8.713c-0.298,0.504-1.546,2.68-3.014,6.197
					c-0.01,0.03-0.021,0.062-0.036,0.092c-0.241,0.592-0.493,1.223-0.75,1.885c0,0.006-0.005,0.011-0.005,0.011
					c-0.2,0.523-0.4,1.072-0.6,1.644c-1.397,3.927-2.789,8.878-3.63,14.602c-0.396,2.681-0.672,5.535-0.771,8.534
					c-0.082-0.03-0.164-0.057-0.246-0.087c0.092-2.875,0.349-5.622,0.718-8.211c0.698-4.878,1.803-9.206,2.968-12.826
					c0.267-0.821,0.539-1.606,0.806-2.352c0.873-2.428,1.741-4.451,2.475-6.013c0.894-1.915,1.587-3.137,1.833-3.553
					c0.062-0.103,0.092-0.154,0.097-0.164c0.021-0.031,0.052-0.052,0.083-0.062c0.036-0.005,0.066,0,0.097,0.015l0.052,0.031
					l13.73,8.683l8.317-15.912l0.071-0.139l1.576-3.009l3.338-6.383c0.036-0.062,0.113-0.087,0.175-0.057
					C70.725,43.9,70.751,43.978,70.72,44.039z"/>
			</g>
			<g opacity="0.4">
				<circle fill="#FFECE1" cx="27.473" cy="75.663" r="12.498"/>
			</g>
		</g>
		<g>
			<g>
				<g>
					<path fill="#FFAA5C" d="M19.034,31.709l5.998-0.475l-5.944-0.551c0.873-0.999,2.185-2.565,2.185-2.565
						s-1.607,1.414-2.693,2.385l-0.461-6.279l-0.439,6.083c-1.038-0.915-2.618-2.107-2.618-2.107s1.453,1.602,2.346,2.577
						l-6.079,0.394l6.028,0.504c-0.926,1.032-2.213,2.736-2.213,2.736s1.618-1.468,2.592-2.36l0.445,5.813l0.479-5.835
						c0.986,0.868,2.696,2.3,2.696,2.3S20.002,32.793,19.034,31.709z"/>
				</g>
				<g>
					<g>
						<path fill="#FFAA5C" d="M80.947,64.506l8.359-0.661l-8.285-0.768c1.217-1.393,3.045-3.576,3.045-3.576
							s-2.24,1.971-3.754,3.324l-0.644-8.75l-0.611,8.479c-1.447-1.275-3.649-2.938-3.649-2.938s2.026,2.232,3.271,3.592
							l-8.473,0.548l8.401,0.704c-1.291,1.438-3.085,3.813-3.085,3.813s2.255-2.046,3.613-3.29l0.62,8.104l0.667-8.133
							c1.375,1.209,3.757,3.204,3.757,3.204S82.297,66.017,80.947,64.506z"/>
					</g>
				</g>
			</g>
			<g>
				<g>
					<g>
						<path fill="#FFAA5C" d="M73.881,20.165l5.999-0.475l-5.945-0.551c0.873-0.999,2.185-2.564,2.185-2.564
							s-1.607,1.414-2.692,2.385l-0.462-6.278l-0.439,6.084c-1.039-0.916-2.618-2.107-2.618-2.107s1.453,1.6,2.348,2.577
							l-6.079,0.393l6.027,0.504c-0.926,1.032-2.213,2.737-2.213,2.737s1.617-1.468,2.592-2.361l0.445,5.814l0.479-5.835
							c0.986,0.867,2.696,2.299,2.696,2.299S74.85,21.248,73.881,20.165z"/>
					</g>
				</g>
				<g>
					<path fill="#FFECE1" d="M43.746,58.844c-0.06-0.009-0.057-0.096,0.003-0.102c0.812-0.069,2.39-0.262,2.566-0.719
						c0.188-0.483,0.534-2.352,0.676-3.137c0.01-0.058,0.093-0.055,0.1,0.003c0.1,0.876,0.38,3.086,0.699,3.294
						c0.303,0.197,1.727,0.406,2.39,0.494c0.058,0.008,0.06,0.091,0.002,0.101c-0.531,0.096-1.063,0.208-1.576,0.371
						c-0.259,0.083-0.546,0.184-0.766,0.361c-0.257,0.205-0.312,0.451-0.381,0.755c-0.156,0.688-0.262,1.389-0.366,2.086
						c-0.009,0.059-0.094,0.057-0.101-0.002c-0.089-0.77-0.343-2.373-0.957-2.84C45.596,59.174,44.413,58.948,43.746,58.844z"/>
				</g>
				<g>
					<path fill="#FFECE1" d="M8.608,58.844c-0.06-0.009-0.057-0.096,0.003-0.102c0.812-0.069,2.39-0.262,2.567-0.719
						c0.187-0.483,0.534-2.352,0.675-3.137c0.011-0.058,0.094-0.055,0.101,0.003c0.1,0.876,0.38,3.086,0.699,3.294
						c0.303,0.197,1.726,0.406,2.39,0.494c0.058,0.008,0.06,0.091,0.001,0.101c-0.53,0.096-1.062,0.208-1.575,0.371
						c-0.26,0.083-0.546,0.184-0.767,0.361c-0.256,0.205-0.312,0.451-0.38,0.755c-0.157,0.688-0.262,1.389-0.366,2.086
						c-0.009,0.059-0.094,0.057-0.101-0.002c-0.089-0.77-0.344-2.373-0.956-2.84C10.458,59.174,9.276,58.948,8.608,58.844z"/>
				</g>
				<g>
					<path fill="#FFECE1" d="M85.976,44.854c-0.06-0.009-0.057-0.096,0.003-0.101c0.813-0.07,2.391-0.262,2.567-0.719
						c0.188-0.484,0.534-2.352,0.675-3.137c0.011-0.058,0.094-0.055,0.101,0.003c0.1,0.875,0.381,3.086,0.699,3.293
						c0.304,0.197,1.728,0.406,2.39,0.495c0.058,0.008,0.06,0.09,0.003,0.101c-0.531,0.095-1.063,0.208-1.576,0.372
						c-0.26,0.083-0.546,0.182-0.767,0.359c-0.256,0.206-0.312,0.452-0.382,0.757c-0.155,0.688-0.261,1.388-0.365,2.085
						c-0.009,0.059-0.094,0.057-0.101-0.002c-0.089-0.77-0.343-2.374-0.956-2.84C87.827,45.184,86.643,44.959,85.976,44.854z"/>
				</g>
				<g>
					<path fill="#FFECE1" d="M56.907,9.536c-0.06-0.009-0.057-0.096,0.004-0.101c0.812-0.07,2.39-0.262,2.566-0.719
						c0.188-0.484,0.534-2.352,0.676-3.137c0.01-0.058,0.094-0.056,0.1,0.003c0.1,0.876,0.381,3.087,0.699,3.294
						c0.305,0.197,1.727,0.406,2.39,0.495c0.058,0.007,0.06,0.09,0.003,0.1c-0.531,0.095-1.063,0.208-1.576,0.372
						c-0.259,0.083-0.546,0.183-0.767,0.36c-0.256,0.206-0.312,0.452-0.381,0.756c-0.156,0.688-0.262,1.388-0.365,2.085
						c-0.01,0.059-0.095,0.057-0.101-0.002c-0.09-0.77-0.344-2.374-0.957-2.84C58.759,9.866,57.575,9.64,56.907,9.536z"/>
				</g>
				<g>
					<path fill="#FFECE1" d="M21.601,17.242c-0.052-0.009-0.049-0.083,0.003-0.088c0.705-0.06,2.075-0.228,2.229-0.625
						c0.163-0.42,0.463-2.042,0.586-2.724c0.009-0.05,0.082-0.048,0.087,0.002c0.086,0.761,0.331,2.68,0.607,2.86
						c0.264,0.171,1.499,0.353,2.075,0.43c0.05,0.006,0.052,0.078,0.001,0.087c-0.461,0.083-0.921,0.181-1.368,0.323
						c-0.225,0.072-0.474,0.158-0.666,0.313c-0.223,0.179-0.271,0.393-0.331,0.657c-0.135,0.597-0.228,1.206-0.317,1.811
						c-0.007,0.051-0.082,0.049-0.088-0.001c-0.077-0.669-0.298-2.062-0.83-2.467C23.208,17.528,22.18,17.333,21.601,17.242z"/>
				</g>
			</g>
		</g>
	</g>
</g>
</svg>
