<?xml version="1.0" encoding="utf-8"?>
<!-- Generator: Adobe Illustrator 16.0.0, SVG Export Plug-In . SVG Version: 6.00 Build 0)  -->
<!DOCTYPE svg PUBLIC "-//W3C//DTD SVG 1.1//EN" "http://www.w3.org/Graphics/SVG/1.1/DTD/svg11.dtd">
<svg version="1.1" id="Layer_1" xmlns="http://www.w3.org/2000/svg" xmlns:xlink="http://www.w3.org/1999/xlink" x="0px" y="0px"
	 width="100px" height="106px" viewBox="0 0 100 106" enable-background="new 0 0 100 106" xml:space="preserve">
<g>
	<path fill="#FF931E" d="M49.609,105.998c-3.305,0-6.608-0.328-9.814-0.975c-2.419-0.482-4.815-1.149-7.114-1.981
		c-5.013-1.813-9.68-4.409-13.871-7.718c-0.125-0.1-0.24-0.194-0.359-0.292c-0.055-0.042-0.111-0.086-0.165-0.131
		c-4.481-3.636-8.263-7.97-11.244-12.885c-0.028-0.044-0.079-0.138-0.079-0.138c-0.057-0.093-0.111-0.187-0.164-0.281
		c-4.227-7.111-6.614-15.247-6.906-23.534c-0.006-0.095-0.008-0.188-0.009-0.282c-0.021-0.512-0.026-1.017-0.026-1.528
		c0-15.957,7.741-31.053,20.708-40.392c0.101-0.074,0.201-0.144,0.301-0.213c1.151-0.82,2.358-1.6,3.597-2.325
		c5.26-11.896,7.948-12.589,9.256-12.925c0.369-0.094,0.751-0.142,1.14-0.142c2.516,0,5.069,1.875,8.867,6.6
		c0.385-0.046,0.768-0.087,1.149-0.122c0.119-0.013,0.241-0.025,0.361-0.033c1.437-0.128,2.907-0.193,4.371-0.193
		c8.586,0,17.045,2.222,24.466,6.426c0.061,0.032,0.118,0.064,0.174,0.096c3.731,2.131,7.174,4.739,10.235,7.752
		c0.074,0.068,0.145,0.139,0.212,0.213c8.014,7.969,13.056,18.398,14.333,29.565c0.688,0.572,1.117,1.435,1.111,2.39
		c-0.005,0.788-0.307,1.509-0.804,2.054c0.011,0.421,0.017,0.838,0.017,1.249v0.196c0,0.083-0.002,0.167-0.006,0.25
		c-0.019,2.56-0.24,5.129-0.657,7.653c0.438,0.631,0.609,1.269,0.667,1.774c0.006,0.059,0.011,0.12,0.013,0.184
		c0.051,0.476,0.006,0.95-0.128,1.399c0.253,0.82,0.154,1.525,0.085,1.843c-0.007,0.031-0.015,0.063-0.024,0.096
		c-0.107,0.426-0.282,0.729-0.348,0.843c-0.078,0.135-0.17,0.272-0.267,0.393c-0.033,0.045-0.095,0.123-0.171,0.208
		c-0.232,0.273-0.663,0.719-1.953,1.791c-0.032,0.025-0.062,0.05-0.09,0.074c-2.115,5.94-5.308,11.36-9.501,16.135l-0.179,0.201
		c-0.175,0.197-0.353,0.394-0.531,0.586c-0.232,0.259-0.475,0.514-0.713,0.762c-0.285,0.294-0.547,0.563-0.813,0.827
		c-0.131,0.13-0.267,0.261-0.402,0.391l-0.152,0.147c-0.055,0.055-0.099,0.101-0.146,0.145l-0.093,0.087
		c-0.213,0.202-0.408,0.384-0.604,0.563c-0.187,0.173-0.378,0.348-0.571,0.521l-0.304,0.274l-0.136,0.115
		c-0.438,0.383-0.864,0.747-1.3,1.103l-0.088,0.074c-0.07,0.058-0.343,0.271-0.343,0.271c-0.277,0.22-0.559,0.444-0.845,0.663
		l-0.08,0.063c-0.188,0.145-0.395,0.3-0.607,0.454c-0.019,0.016-0.639,0.459-0.639,0.459c-0.07,0.053-0.142,0.102-0.214,0.152
		l-0.156,0.107c-0.188,0.133-0.374,0.265-0.564,0.394c-0.024,0.017-0.236,0.156-0.24,0.159c-0.304,0.202-0.606,0.403-0.914,0.601
		l-0.349,0.217c-0.763,0.479-1.557,0.946-2.352,1.386L73.36,99.97l-0.121,0.064c-0.257,0.139-0.483,0.259-0.713,0.378l-0.031,0.016
		c-0.09,0.05-0.181,0.096-0.274,0.143c0,0-0.182,0.093-0.23,0.115c-0.197,0.101-0.395,0.199-0.594,0.297l-0.112,0.056l-0.186,0.087
		c-0.486,0.232-0.967,0.454-1.45,0.667c0,0-0.16,0.07-0.168,0.074c-0.896,0.39-1.793,0.751-2.688,1.08
		c-0.101,0.039-0.246,0.092-0.248,0.092c-0.469,0.171-0.927,0.329-1.387,0.48C60.154,105.164,54.922,105.998,49.609,105.998z"/>
	<g>
		<path fill="#6B83FF" d="M96.514,56.253v0.196c0,0.045,0,0.092-0.005,0.139c-0.016,2.761-0.277,5.462-0.76,8.085
			c0,0.047-0.012,0.094-0.021,0.134c-0.047,0.258-0.097,0.514-0.149,0.771c-0.076,0.386-0.16,0.77-0.251,1.149
			c-0.012,0.063-0.026,0.118-0.041,0.18c-0.108,0.473-0.228,0.94-0.351,1.407c-0.021,0.066-0.035,0.134-0.056,0.201
			c-0.087,0.322-0.175,0.641-0.271,0.959c-0.047,0.159-0.093,0.318-0.144,0.478c-0.119,0.396-0.248,0.785-0.376,1.171
			c-1.992,5.935-5.148,11.336-9.188,15.937c-0.222,0.246-0.443,0.498-0.669,0.739c-0.22,0.246-0.452,0.487-0.678,0.724
			c-0.249,0.258-0.501,0.513-0.752,0.765c-0.648,0.648-1.316,1.274-2.002,1.882c-0.044,0.04-0.091,0.081-0.136,0.122
			c-0.467,0.409-0.94,0.814-1.423,1.205c-0.286,0.236-0.58,0.468-0.873,0.688c-0.107,0.087-0.216,0.169-0.324,0.252
			c-0.179,0.139-0.362,0.277-0.553,0.415c-0.21,0.159-0.426,0.313-0.643,0.463c-0.286,0.21-0.579,0.41-0.879,0.61
			c-0.742,0.509-1.508,0.991-2.288,1.452c-0.236,0.145-0.479,0.289-0.721,0.421c-0.271,0.16-0.553,0.314-0.836,0.469
			c-0.281,0.153-0.569,0.308-0.862,0.456c-0.119,0.063-0.236,0.124-0.354,0.181c-0.247,0.128-0.499,0.251-0.75,0.374
			c-0.529,0.257-1.058,0.498-1.598,0.734c-0.21,0.093-0.421,0.185-0.635,0.272c-0.236,0.103-0.474,0.2-0.715,0.292
			c-0.179,0.077-0.354,0.144-0.535,0.211c-0.301,0.123-0.599,0.236-0.908,0.344c-0.065,0.025-0.132,0.052-0.205,0.072
			c-0.374,0.139-0.748,0.267-1.128,0.39c-4.591,1.51-9.494,2.326-14.587,2.326c-3.152,0-6.228-0.313-9.206-0.914
			c-2.29-0.457-4.518-1.078-6.674-1.859c-4.744-1.715-9.128-4.173-13.01-7.239c-0.124-0.097-0.241-0.194-0.365-0.297
			c-0.036-0.025-0.077-0.057-0.113-0.087c-4.179-3.389-7.763-7.48-10.566-12.101c-0.021-0.041-0.046-0.083-0.066-0.119
			c-0.046-0.077-0.093-0.154-0.134-0.23c-3.891-6.53-6.228-14.084-6.504-22.159c-0.006-0.066-0.006-0.134-0.006-0.201
			c-0.021-0.486-0.025-0.97-0.025-1.458c0-15.613,7.67-29.435,19.448-37.906c0.082-0.062,0.165-0.118,0.247-0.175
			c1.36-0.971,2.777-1.864,4.246-2.68c1.355-0.765,2.757-1.458,4.194-2.079c0.499-0.215,1.001-0.421,1.51-0.622
			c3.122-1.222,6.407-2.12,9.811-2.644c0.919-0.144,1.854-0.261,2.793-0.349c0.092-0.01,0.189-0.02,0.282-0.025
			c1.366-0.124,2.742-0.185,4.138-0.185c8.364,0,16.209,2.197,22.996,6.053c0.041,0.02,0.078,0.041,0.114,0.061
			c3.531,2.018,6.775,4.482,9.652,7.321c0.035,0.031,0.066,0.062,0.097,0.098C91.235,31.573,96.514,43.293,96.514,56.253z"/>
		<g>
			<path fill="#FFECE1" d="M26.124,18.069c-1.155,0.031-2.346,0.062-3.496,0.278c0.082-0.062,0.165-0.118,0.247-0.175
				c1.073-0.175,2.177-0.206,3.245-0.231c0.77-0.021,1.566-0.041,2.336-0.118c5.473-0.519,10.258-3.646,14.884-6.669
				c0.693-0.452,1.387-0.909,2.09-1.356c0.092-0.01,0.189-0.02,0.282-0.025c-0.775,0.488-1.541,0.991-2.301,1.489
				c-4.641,3.029-9.436,6.166-14.945,6.689C27.69,18.029,26.895,18.049,26.124,18.069z"/>
			<path fill="#FFECE1" d="M72.959,15.703c-0.474,1.068-1.14,2.039-1.916,2.814c-2.273,2.285-5.452,3.481-8.517,4.513
				c-2.901,0.98-5.875,1.905-8.755,2.803c-7.167,2.233-14.581,4.539-21.45,7.845c-11.511,5.535-21.569,13.95-29.11,24.234
				c-0.006-0.066-0.006-0.134-0.006-0.201c7.542-10.243,17.58-18.627,29.06-24.151c6.88-3.307,14.299-5.617,21.471-7.85
				c2.875-0.894,5.854-1.822,8.75-2.798c3.05-1.027,6.211-2.223,8.47-4.487c0.766-0.765,1.428-1.73,1.89-2.782
				C72.886,15.662,72.923,15.682,72.959,15.703z"/>
			<path fill="#FFECE1" d="M19.214,65.736c-0.395,0.904-0.801,1.838-1.222,2.737c-2.162,4.614-4.898,8.65-8.076,11.947
				c-0.021-0.041-0.046-0.083-0.066-0.119c3.157-3.28,5.879-7.296,8.024-11.886c0.421-0.897,0.827-1.828,1.222-2.731
				c1.72-3.928,3.491-7.982,6.859-10.618c2.557-1.998,5.739-2.927,8.82-3.82c1.705-0.498,3.471-1.016,5.119-1.704
				c4.461-1.874,8.296-5.186,10.797-9.329c0.59-0.98,1.125-2.028,1.643-3.044c1.238-2.429,2.516-4.934,4.65-6.659
				c2.866-2.305,6.666-2.778,10.342-3.229c0.725-0.092,1.464-0.18,2.183-0.288c4.558-0.657,8.957-1.992,13.103-3.969
				c0.035,0.031,0.066,0.062,0.097,0.098c-4.169,1.993-8.599,3.337-13.18,4c-0.718,0.103-1.463,0.195-2.182,0.288
				c-3.661,0.452-7.444,0.914-10.279,3.204c-2.115,1.705-3.388,4.2-4.62,6.613c-0.52,1.021-1.053,2.074-1.648,3.055
				c-2.516,4.164-6.372,7.496-10.859,9.38c-1.653,0.693-3.419,1.207-5.128,1.705c-3.07,0.898-6.243,1.822-8.774,3.805
				C22.695,57.778,20.923,61.823,19.214,65.736z"/>
			<path fill="#FFECE1" d="M94.361,64.104c0.468,0.164,0.932,0.354,1.388,0.569c0,0.047-0.012,0.094-0.021,0.134
				c-0.468-0.22-0.935-0.411-1.408-0.58c-4.087-1.448-8.507-0.775-11.259,1.721c-3.337,3.024-3.772,7.793-4.193,12.409
				c-0.134,1.427-0.268,2.905-0.487,4.302c-0.858,5.411-3.339,10.612-7.117,15.063c-0.102,0.057-0.21,0.108-0.318,0.165
				c3.892-4.493,6.439-9.766,7.307-15.249c0.22-1.392,0.354-2.864,0.488-4.297c0.426-4.637,0.861-9.432,4.239-12.491
				C85.763,63.328,90.229,62.64,94.361,64.104z"/>
			<path fill="#FFECE1" d="M96.514,56.449c0,0.045,0,0.092-0.005,0.139c-3.754,1.452-8.093,1.503-12.326,1.561l-0.546,0.005
				c-14.92,0.199-26.445,2.279-36.267,6.546c-12.307,5.345-21.738,14.524-25.871,25.188c-0.359,0.929-0.663,1.838-0.904,2.721
				c-0.036-0.025-0.077-0.057-0.113-0.087c0.246-0.872,0.544-1.762,0.898-2.681c4.144-10.694,13.601-19.899,25.938-25.26
				c9.843-4.277,21.378-6.355,36.319-6.556l0.546-0.006C88.416,57.964,92.766,57.912,96.514,56.449z"/>
		</g>
		<g>
			<path fill="#5A2250" d="M76.85,29.075c0,0,2.689,2.207,2.624,5.942c-0.099,5.574-3.06,6.817-10.051,9.613
				c-6.992,2.796-32.159,3.233-32.159,3.233l11.536-14.682l17.303-6.554L76.85,29.075z"/>
			<g>
				<path fill="#FFECE1" d="M60.21,33.447v0.041c0.011,0.59-0.411,1.207-0.996,1.258c-0.415,0.031-0.821-0.2-1.232-0.149
					c-1.041,0.128-1.017,1.643-1.535,2.562c-0.661,1.181-2.237,1.283-3.63,1.032c-0.199-0.031-0.39-0.072-0.579-0.118
					c-1.505-0.37-3.287-0.811-4.447,0.215c-1.376,1.217-0.919,3.723-2.069,5.022c0,0,0,0.005-0.006,0.01
					c-0.117,0.134-0.256,0.257-0.415,0.36c-0.149,0.102-0.314,0.18-0.483,0.246c-0.308,0.134-0.636,0.231-0.939,0.38
					c-0.431,0.216-0.8,0.544-1.073,0.94c-0.262,0.385-0.442,0.827-0.513,1.283c-0.067,0.38-0.051,0.765,0.041,1.14
					c0.072,0.287,0.108,0.58,0.113,0.878c0.005,0.107,0.005,0.215,0,0.323c-0.036,1.088-0.39,2.244-0.708,3.327
					c-0.118,0.4-0.231,0.791-0.318,1.166c-0.2,0.853-0.344,1.71-0.431,2.578c-0.36,3.374,0.005,6.829,0.216,10.249
					c0.021,0.303,0.036,0.605,0.051,0.908c0.02,0.405,0.041,0.806,0.057,1.212c0.098,2.799,0.041,5.611-0.169,8.415
					c-0.006,0.057-0.01,0.112-0.016,0.169c-0.041,0.528-0.087,1.058-0.144,1.587c-0.062,0.646-0.133,1.294-0.216,1.936
					c-0.688,5.514-1.971,10.955-3.846,16.152c-0.39,1.083-0.805,2.155-1.247,3.219c-0.565,0.144-1.129,0.267-1.705,0.358
					c-4.744-1.715-9.128-4.173-13.01-7.239c-0.124-0.097-0.241-0.194-0.365-0.297c-0.036-0.025-0.077-0.057-0.113-0.087
					c-4.179-3.389-7.763-7.48-10.566-12.101c-0.021-0.041-0.046-0.083-0.066-0.119c-0.046-0.077-0.093-0.154-0.134-0.23
					c0.062-3.138,0.698-6.27,1.875-9.181c2.541-6.294,7.455-11.505,13.343-14.885c1.972-1.135,4.082-2.089,5.761-3.624
					c0.626-0.575,1.176-1.212,1.664-1.895c3.578-5.016,3.81-12.486,8.481-16.691c3.625-3.26,8.97-3.65,13.832-3.311
					c1.653,0.113,3.419,0.338,4.671,1.427c0.345,0.298,0.643,0.672,0.786,1.093v0.005C60.175,33.154,60.204,33.298,60.21,33.447z"/>
				<g>
					<g>
						<path fill="#B03D91" d="M64.437,100.592c-4.591,1.51-9.494,2.326-14.587,2.326c-3.152,0-6.228-0.313-9.206-0.914
							c-2.29-0.457-4.518-1.078-6.674-1.859c-4.744-1.715-9.128-4.173-13.01-7.239l6.038-25.197c0-0.005,0-0.016,0.005-0.021
							l0.036-0.159l0.657-1.576l8.287,7.809l5,4.719l8.678,8.184L64.437,100.592z"/>
						<path fill="#B03D91" d="M84.901,87.059c-0.879,0.996-1.799,1.956-2.752,2.864c-4.976,4.785-11.008,8.467-17.713,10.669
							c-4.591,1.51-9.494,2.326-14.587,2.326c-3.152,0-6.228-0.313-9.206-0.914c-3.137-4.123-5.262-8.015-6.176-9.657
							c-2.028-3.646-8.107-13.976-7.66-22.842c0.031-0.606,0.087-1.207,0.19-1.797c0.01-0.088,0.026-0.18,0.041-0.268
							c1.664-9.262,14.16-17.216,14.16-17.216s-1.401,11.974,2.706,14.156c4.107,2.188,15.818,16.778,15.818,16.778
							s8.611-11.726,10.9-13.729c0.072-0.067,0.14-0.118,0.201-0.165c1.919-1.401,6.377,6.639,9.523,11.799
							C81.302,80.631,83,83.624,84.901,87.059z"/>
					</g>
					<g>
						<path fill="#5A2250" d="M84.901,87.059c-0.879,0.996-1.799,1.956-2.752,2.864c-0.659-0.79-1.291-1.597-1.901-2.418
							c-1.298-1.756-2.499-3.578-3.598-5.463c-0.849-1.442-1.629-2.921-2.354-4.431c-0.403-0.853-0.851-1.766-1.288-2.711
							c-1.113-2.402-2.171-5.026-2.387-7.47c0.072-0.067,0.14-0.118,0.201-0.165c1.134-0.825,3.157,1.644,5.271,4.873
							c1.46,2.229,2.968,4.821,4.253,6.926c0.144,0.241,0.308,0.509,0.482,0.812C81.825,81.55,83.289,84.147,84.901,87.059z"/>
						<g>
							<path fill="#FF8D9E" d="M96.561,68.884c-0.006,0.021-0.022,0.046-0.041,0.082c-0.022,0.025-0.047,0.062-0.082,0.103
								c-0.242,0.283-0.832,0.806-1.618,1.458c-0.037,0.031-0.066,0.057-0.103,0.083c-2.239,1.848-5.977,4.646-8.077,6.006
								c-1.288,0.832-3.572,2.085-5.811,3.261c-1.525,0.812-3.029,1.581-4.179,2.166c-0.849-1.442-1.629-2.921-2.354-4.431
								c-0.403-0.853-0.851-1.766-1.288-2.711c0.569-0.466,1.649-1.391,3.015-2.695c0.026-0.025,0.052-0.046,0.07-0.066
								c2.01-1.946,3.103-3.789,5.822-4.522c1.531-0.412,3.596-1.217,5.186-1.772c0.043-0.016,0.078-0.03,0.119-0.046
								c0.961-0.328,1.725-0.564,2.074-0.56c0.067,0,0.117,0.01,0.149,0.036c0.015,0.005,0.026,0.015,0.035,0.026
								c0.304,0.436,1.008,1.482,0.479,1.919c-0.525,0.438-7.075,3.671-6.728,3.979c0.351,0.303,2.142,0.437,4.633-1.093
								c2.489-1.53,6.772-4.766,7.515-4.591c0.181,0.041,0.359,0.124,0.52,0.227c0.324,0.215,0.575,0.528,0.641,0.815v0.016
								c0.026,0.139,0.006,0.271-0.065,0.386c-0.031,0.045-0.058,0.086-0.093,0.128c-0.009,0.015-0.015,0.031-0.029,0.046
								c-0.31,0.39-0.71,0.657-0.71,0.657s0.041,0.021,0.103,0.057C96,67.996,96.663,68.422,96.561,68.884z"/>
							<g>
								<path fill="#5A2250" d="M88.036,72.966c-0.021,0-0.041-0.011-0.054-0.03c-0.019-0.03-0.009-0.07,0.021-0.089
									c0.069-0.043,6.951-4.331,7.81-5.232c0.434-0.456,0.629-0.827,0.596-1.133c-0.026-0.233-0.185-0.439-0.497-0.648
									c-0.03-0.02-0.038-0.06-0.019-0.089c0.021-0.029,0.06-0.037,0.089-0.019c0.347,0.232,0.523,0.468,0.553,0.742
									c0.039,0.346-0.165,0.749-0.629,1.235c-0.87,0.912-7.551,5.076-7.835,5.254C88.061,72.963,88.048,72.966,88.036,72.966z"/>
							</g>
							<g>
								<path fill="#5A2250" d="M89.562,65.813c0,0.077,0,0.159-0.041,0.23c-0.035,0.067-0.097,0.114-0.152,0.149
									c-0.438,0.282-0.935,0.442-1.419,0.596c-0.082,0.025-0.164,0.046-0.252,0.046c-0.056,0-0.111-0.011-0.163-0.036
									c-0.103-0.061-0.158-0.17-0.199-0.267c-0.094-0.221-0.176-0.452-0.233-0.688c0.043-0.016,0.078-0.03,0.119-0.046
									c0.062,0.236,0.138,0.463,0.231,0.688c0.035,0.077,0.076,0.159,0.144,0.2c0.087,0.047,0.2,0.016,0.313-0.021
									c0.479-0.148,0.966-0.308,1.393-0.58c0.041-0.03,0.086-0.062,0.108-0.102c0.023-0.047,0.023-0.103,0.023-0.16
									c-0.009-0.199-0.056-0.399-0.138-0.585c0.067,0,0.117,0.01,0.149,0.036C89.511,65.444,89.552,65.628,89.562,65.813z"/>
							</g>
							<g>
								<path fill="#5A2250" d="M94.559,68.698c-0.023,0-0.046-0.014-0.058-0.036c-0.111-0.234-0.188-0.484-0.227-0.741
									c-0.019-0.121-0.028-0.261,0.035-0.382c0.039-0.074,0.099-0.13,0.16-0.185c0.222-0.189,0.475-0.379,0.776-0.577
									c0.156-0.103,0.326-0.205,0.516-0.22c0.19-0.021,0.587,0.169,0.639,0.387c0.01,0.035-0.011,0.069-0.047,0.077
									c-0.035,0.008-0.068-0.013-0.076-0.047c-0.033-0.137-0.35-0.306-0.504-0.29c-0.16,0.014-0.308,0.102-0.457,0.199
									c-0.298,0.196-0.547,0.382-0.761,0.568c-0.055,0.047-0.104,0.092-0.133,0.146c-0.046,0.089-0.037,0.203-0.022,0.303
									c0.037,0.246,0.11,0.481,0.218,0.705c0.016,0.031,0,0.069-0.031,0.086C94.577,68.696,94.568,68.698,94.559,68.698z"/>
							</g>
							<g>
								<path fill="#5A2250" d="M96.52,68.966c-0.022,0.025-0.047,0.062-0.082,0.103c-0.104-0.149-0.227-0.288-0.365-0.4
									c-0.025-0.021-0.058-0.047-0.081-0.052c-0.038-0.005-0.078,0.021-0.119,0.041c-0.416,0.241-0.796,0.534-1.14,0.874
									c-0.062,0.056-0.119,0.117-0.144,0.188c-0.041,0.118,0.006,0.252,0.062,0.396l0.169,0.411
									c-0.037,0.031-0.066,0.057-0.103,0.083l-0.186-0.447c-0.051-0.123-0.129-0.313-0.065-0.483
									c0.035-0.097,0.106-0.174,0.179-0.241c0.351-0.344,0.739-0.642,1.16-0.888c0.058-0.035,0.128-0.072,0.207-0.056
									c0.056,0.004,0.102,0.041,0.143,0.076C96.292,68.684,96.411,68.816,96.52,68.966z"/>
							</g>
						</g>
					</g>
				</g>
				<g>
					<path fill="#FF8D9E" d="M63.876,41.882c0,0.195-0.006,0.385-0.015,0.575c-0.041,0.714-0.146,1.402-0.31,2.074
						c-0.097,0.544-0.234,1.258-0.421,2.084c-1.083,4.836-3.736,13.443-8.856,12.887c-7.095-0.764-13.076-3.614-12.661-9.247
						c0.093-1.217,0.242-2.418,0.426-3.553c-0.683-1.468-1.073-3.096-1.073-4.821c0-6.325,5.129-11.454,11.454-11.454
						C58.746,30.428,63.876,35.557,63.876,41.882z"/>
					<g>
						<g>
							<path fill="#FFECE1" d="M73.707,72.493c0.006,0.785-0.035,1.566-0.132,2.346c-0.006,0.052-0.012,0.103-0.022,0.154
								c-0.112,0.889-0.296,1.771-0.574,2.623c-0.005,0.016-0.011,0.036-0.017,0.053c-0.009,0.035-0.023,0.071-0.035,0.106
								c-0.684,2.055-1.858,3.897-3.357,5.442c-0.031,0.036-0.066,0.067-0.097,0.098c-0.817,0.827-1.731,1.566-2.711,2.203
								c-0.037,0.021-0.072,0.046-0.107,0.066c-0.499,0.322-1.022,0.616-1.557,0.879c-0.041,0.02-0.082,0.04-0.123,0.061
								c-0.509,0.247-1.017,0.468-1.546,0.657c-0.005,0.005-0.011,0.005-0.015,0.005c-0.148,0.056-0.298,0.108-0.446,0.154
								l-0.006,0.005c-0.267,0.088-0.534,0.17-0.807,0.241c-4.918,1.34-10.304,0.427-14.781-2.002
								c-4.482-2.423-8.092-6.274-10.72-10.644c-2.233-3.707-3.819-7.947-3.666-12.275c0.092-2.552,0.852-5.114,2.259-7.255
								c0.632-0.961,1.402-1.829,2.28-2.567c0.883-0.739,1.9-1.284,2.726-2.1c0.622-0.611,1.228-1.402,1.438-2.264
								c0.118-0.472-0.078-1.823,0.544-1.997c0.206,0.149,0.4,0.313,0.585,0.482c0.041,0.036,0.083,0.072,0.124,0.103
								c0.56,0.508,1.083,1.052,1.746,1.468c0.046,0.031,0.087,0.061,0.133,0.077c0.057,0.041,0.113,0.077,0.175,0.108
								c1.093,0.59,2.315,0.95,3.558,1.022c0.062,0.005,0.124,0.005,0.18,0.005c0.046,0.005,0.093,0.005,0.139,0
								c1.73,0.036,3.444-0.416,5.165-0.632c0.144-0.02,0.287-0.036,0.431-0.046c0.041-0.005,0.087-0.01,0.134-0.01
								c1.776-0.154,3.672,0.036,5.262,0.724c0.063,0.025,0.124,0.051,0.181,0.082c1.067,0.493,1.986,1.217,2.629,2.229
								c0.912,1.431,1.119,3.218,1.955,4.697c0.201,0.355,0.438,0.684,0.694,0.992c0.045,0.062,0.092,0.117,0.147,0.174
								c0.826,0.955,1.869,1.741,2.865,2.572l0.006,0.005c0.088,0.066,0.169,0.134,0.257,0.205c0.324,0.277,0.637,0.556,0.933,0.854
								c2.234,2.192,3.514,5.186,3.976,8.301v0.011c0.026,0.123,0.041,0.246,0.056,0.369v0.006
								C73.657,71.02,73.703,71.754,73.707,72.493z"/>
							<g>
								<g>
									<path fill="#FFAAE1" d="M63.414,87.187c-0.148,0.056-0.298,0.108-0.446,0.154l-0.006,0.005
										c-0.345,0.021-0.688,0.031-1.037,0.031c-2.711,0-5.571-0.601-8.385-1.782c-2.977-1.242-6.001-3.151-9.246-5.837
										c-3.928-3.245-6.485-6.259-8.045-9.483c-1.982-4.097-2.192-8.636-0.565-12.147c0.853-1.838,2.192-3.415,3.486-4.94
										c0.894-1.057,1.818-2.146,2.578-3.322c0.441-0.678,1.037-1.792,1.073-2.9c0.041,0.036,0.083,0.072,0.124,0.103
										c-0.072,1.109-0.652,2.197-1.088,2.87c-0.765,1.181-1.689,2.274-2.588,3.332c-1.289,1.515-2.624,3.086-3.465,4.916
										c-1.612,3.475-1.401,7.974,0.565,12.034c1.55,3.203,4.097,6.207,8.009,9.442c3.235,2.674,6.249,4.578,9.211,5.816
										C56.908,86.863,60.287,87.453,63.414,87.187z"/>
								</g>
								<g>
									<path fill="#FFAAE1" d="M65.098,86.464c-0.041,0.02-0.082,0.04-0.123,0.061c-0.4-0.369-0.862-0.708-1.376-0.99
										c-1.283-0.709-2.737-1.089-4.143-1.454c-0.222-0.056-0.438-0.112-0.657-0.169c-4.602-1.227-8.2-2.87-11.003-5.031
										c-3.466-2.67-5.802-6.336-6.413-10.048c-0.632-3.851,0.482-7.727,1.565-11.469c0.832-2.888,1.684-5.854,1.741-8.827
										c0.046,0.031,0.087,0.061,0.133,0.077c-0.072,2.962-0.924,5.915-1.75,8.786c-1.079,3.732-2.188,7.588-1.561,11.413
										c0.601,3.682,2.921,7.316,6.361,9.966c2.787,2.151,6.371,3.789,10.956,5.011c0.221,0.057,0.442,0.113,0.662,0.169
										c1.412,0.37,2.875,0.751,4.169,1.464C64.2,85.719,64.683,86.072,65.098,86.464z"/>
								</g>
								<g>
									<path fill="#FFAAE1" d="M66.762,85.519c-0.037,0.021-0.072,0.046-0.107,0.066c-0.365-0.503-0.771-1.001-1.213-1.489
										c-1.75-1.919-3.886-3.496-5.956-5.026c-0.364-0.266-0.728-0.539-1.093-0.806c-2.254-1.689-4.806-3.712-6.552-6.387
										c-2.146-3.301-3.116-7.625-2.962-13.226c0.021-0.657,0.051-1.33,0.082-1.977c0.109-2.312,0.216-4.678-0.226-6.927
										c0.046,0.005,0.093,0.005,0.139,0c0.431,2.253,0.323,4.625,0.215,6.932c-0.031,0.647-0.062,1.319-0.082,1.977
										c-0.154,5.57,0.806,9.873,2.942,13.149c1.73,2.658,4.276,4.671,6.521,6.355c0.364,0.267,0.729,0.539,1.094,0.805
										c2.068,1.531,4.216,3.112,5.972,5.043C65.981,84.502,66.392,85.005,66.762,85.519z"/>
								</g>
								<g>
									<path fill="#FFAAE1" d="M69.569,83.218c-0.031,0.036-0.066,0.067-0.097,0.098c-0.411-0.908-0.879-1.735-1.331-2.438
										c-1.38-2.161-3.146-4.097-4.855-5.966c-0.54-0.591-1.099-1.202-1.634-1.812c-1.155-1.311-2.063-2.45-2.735-3.748
										c-1.243-2.409-1.541-5.171-1.833-7.841c-0.053-0.498-0.108-1.001-0.17-1.493c-0.447-3.723-1.268-7.396-2.444-10.948
										c0.041-0.005,0.087-0.01,0.134-0.01c1.171,3.553,1.986,7.22,2.439,10.941c0.062,0.493,0.118,0.996,0.169,1.495
										c0.287,2.658,0.585,5.41,1.817,7.793c0.667,1.294,1.571,2.423,2.717,3.723c0.538,0.61,1.099,1.222,1.637,1.812
										c1.709,1.874,3.476,3.81,4.867,5.981C68.702,81.503,69.164,82.319,69.569,83.218z"/>
								</g>
								<g>
									<path fill="#FFAAE1" d="M72.979,77.616c-0.005,0.016-0.011,0.036-0.017,0.053c-0.009,0.035-0.023,0.071-0.035,0.106
										c-0.4-0.631-0.871-1.231-1.423-1.791c-1.052-1.073-2.354-1.921-3.613-2.747c-1.725-1.13-3.512-2.3-4.651-4.046
										c-1.052-1.602-1.557-3.635-1.596-6.401c-0.012-0.869,0.019-1.757,0.045-2.613c0.046-1.32,0.093-2.69-0.016-4.025
										c-0.184-2.214-0.806-4.386-1.808-6.368c0.063,0.025,0.124,0.051,0.181,0.082c0.97,1.962,1.575,4.097,1.756,6.275
										c0.108,1.346,0.062,2.716,0.015,4.04c-0.025,0.857-0.056,1.74-0.045,2.609c0.041,2.74,0.538,4.753,1.575,6.329
										c1.125,1.726,2.901,2.887,4.616,4.011c1.263,0.827,2.565,1.685,3.635,2.762C72.132,76.432,72.588,77.012,72.979,77.616z"/>
								</g>
								<g>
									<path fill="#FFAAE1" d="M73.575,74.839c-0.006,0.052-0.012,0.103-0.022,0.154c-2.279-1.899-4.22-4.404-5.596-7.306
										c-1.364-2.876-2.249-6.191-2.633-9.903c0.045,0.062,0.092,0.117,0.147,0.174c0.396,3.624,1.265,6.865,2.604,9.673
										C69.43,70.49,71.341,72.965,73.575,74.839z"/>
								</g>
								<g>
									<path fill="#FFAAE1" d="M73.563,70.274l-5.221-9.739c0.088,0.066,0.169,0.134,0.257,0.205l4.908,9.154v0.011
										C73.534,70.028,73.549,70.151,73.563,70.274z"/>
								</g>
							</g>
						</g>
						<g>
							<path fill="#FF8D9E" d="M58.814,42.294c0.537,2.121,0.57,4.345,0.348,6.522c-0.063,0.621-0.155,1.262-0.484,1.792
								c-0.33,0.531-0.961,0.922-1.571,0.789c-0.377-0.083-0.688-0.348-1.046-0.493c-0.398-0.161-0.839-0.169-1.267-0.22
								c-0.427-0.051-0.874-0.162-1.172-0.472s-0.361-0.874-0.031-1.148C55.637,47.358,57.113,44.344,58.814,42.294z"/>
							<g>
								<g>
									<path fill="#5A2250" d="M52.002,46.562h-1.818c-0.274,0-0.5-0.226-0.5-0.5l0,0c0-0.275,0.226-0.5,0.5-0.5h1.818
										c0.275,0,0.501,0.225,0.501,0.5l0,0C52.503,46.336,52.277,46.562,52.002,46.562z"/>
									<path fill="#5A2250" d="M63.172,46.42c0.006-0.005,0-0.005,0-0.005c-0.07-0.077-0.164-0.133-0.277-0.144l-1.555-0.139
										c-0.011,0-0.026,0-0.037,0c-0.22,0-0.409,0.164-0.436,0.39c-0.021,0.237,0.154,0.447,0.391,0.468l1.561,0.144
										c0.01,0,0.026,0,0.035,0c0.058,0,0.114-0.01,0.164-0.036L63.172,46.42z"/>
								</g>
								
									<path fill="none" stroke="#5A2250" stroke-width="0.524" stroke-linecap="round" stroke-linejoin="round" stroke-miterlimit="10" d="
									M54.272,48.191c0,0-1.476,0.95-0.755,1.835c0.722,0.885,1.312,0.525,2.032,0.754s1.999,1.343,2.884,0.13
									c0.885-1.212,1.017-3.081,0.918-5.079c-0.099-2-0.492-3.966-0.492-3.966"/>
								<path fill="#FFECE1" d="M48.818,41.229c-0.277,0.087-0.557,0.191-0.775,0.383c-0.349,0.306-0.485,0.783-0.593,1.234
									c-0.092,0.388-0.176,0.784-0.156,1.183c0.019,0.398,0.153,0.805,0.439,1.083c0.376,0.364,0.937,0.445,1.459,0.49
									c1.221,0.104,2.454,0.106,3.667-0.064c0.45-0.063,0.929-0.166,1.237-0.498c0.296-0.318,0.373-0.78,0.396-1.215
									c0.068-1.293-0.474-2.636-1.838-3.002c-0.476-0.127-1.024-0.045-1.507-0.016C50.356,40.854,49.574,40.991,48.818,41.229z"/>
								<path fill="#FFECE1" d="M63.861,42.457c-0.041,0.714-0.146,1.402-0.31,2.074c-0.097,0.544-0.234,1.258-0.421,2.084
									c-0.327,0.021-0.678-0.036-1.005-0.103c-0.674-0.134-1.443-0.354-1.711-0.986c-0.103-0.236-0.112-0.502-0.106-0.765
									c0.004-0.4,0.046-0.801,0.117-1.196c0.067-0.344,0.164-0.693,0.395-0.955c0.335-0.375,0.879-0.483,1.376-0.483
									C62.761,42.128,63.336,42.242,63.861,42.457z"/>
							</g>
						</g>
					</g>
				</g>
				<path fill="#B03D91" d="M34.991,35.629c0,0,1.311,1.661-9.088,5.943c-10.399,4.282-14.507,5.069-13.284,8.389
					c1.224,3.321,14.333,5.243,29.363-4.195c15.03-9.438,22.197-19.313,34.867-16.691c0,0-3.057-2.622-10.136-2.796
					c-7.078-0.175-9.612,0.611-9.612,0.611s-6.555-6.117-9.789-10.399S37.788,2.596,34.729,3.382
					c-3.058,0.786-8.214,13.546-8.214,13.546l6.205-4.545c0,0,1.223,4.632,1.835,11.099C35.166,29.949,34.991,35.629,34.991,35.629z
					"/>
			</g>
		</g>
		<g>
			<g>
				<path fill="#FFAA5C" d="M58.562,18.134l5.998-0.476l-5.945-0.551c0.873-0.999,2.184-2.564,2.184-2.564s-1.605,1.414-2.692,2.385
					l-0.462-6.278l-0.438,6.083c-1.038-0.915-2.616-2.107-2.616-2.107s1.452,1.601,2.346,2.577l-6.079,0.393l6.028,0.504
					c-0.927,1.032-2.213,2.737-2.213,2.737s1.617-1.468,2.592-2.36l0.444,5.813l0.479-5.835c0.986,0.867,2.696,2.299,2.696,2.299
					S59.53,19.217,58.562,18.134z"/>
				<g>
					<path fill="#FFAA5C" d="M86.294,53.801L97.3,52.929l-10.907-1.011c1.602-1.833,4.009-4.707,4.009-4.707
						s-2.951,2.594-4.943,4.377L84.61,40.066L83.807,51.23c-1.907-1.679-4.806-3.868-4.806-3.868s2.668,2.938,4.307,4.73
						l-11.155,0.722l11.062,0.925c-1.699,1.894-4.061,5.024-4.061,5.024s2.968-2.694,4.755-4.333l0.817,10.671l0.879-10.711
						c1.809,1.592,4.947,4.221,4.947,4.221S88.07,55.79,86.294,53.801z"/>
					<circle opacity="0.4" fill="#FFECE1" cx="84.522" cy="52.97" r="10.649"/>
				</g>
			</g>
			<g>
				<g>
					<path fill="#FFECE1" d="M78.839,31.763c-0.06-0.009-0.057-0.096,0.003-0.101c0.813-0.07,2.39-0.263,2.566-0.719
						c0.188-0.484,0.534-2.351,0.676-3.137c0.009-0.058,0.093-0.055,0.101,0.003c0.099,0.875,0.38,3.086,0.698,3.293
						c0.304,0.197,1.726,0.406,2.391,0.494c0.056,0.008,0.058,0.09,0.002,0.101c-0.53,0.095-1.062,0.208-1.575,0.372
						c-0.261,0.083-0.548,0.183-0.768,0.36c-0.257,0.206-0.313,0.452-0.381,0.756c-0.157,0.688-0.261,1.388-0.365,2.085
						c-0.01,0.059-0.095,0.057-0.101-0.002c-0.09-0.77-0.345-2.373-0.957-2.84C80.689,32.093,79.505,31.867,78.839,31.763z"/>
					<path fill="#FFECE1" d="M77.525,84.006c-0.06-0.01-0.058-0.097,0.004-0.102c0.813-0.07,2.39-0.262,2.566-0.719
						c0.186-0.484,0.534-2.352,0.676-3.138c0.009-0.058,0.093-0.055,0.099,0.004c0.101,0.876,0.382,3.086,0.7,3.293
						c0.303,0.197,1.726,0.407,2.389,0.494c0.058,0.008,0.06,0.091,0.002,0.101c-0.529,0.095-1.062,0.208-1.575,0.372
						c-0.259,0.082-0.546,0.182-0.768,0.359c-0.255,0.207-0.311,0.452-0.38,0.757c-0.156,0.688-0.261,1.388-0.364,2.085
						c-0.01,0.059-0.096,0.058-0.101-0.002c-0.09-0.77-0.345-2.373-0.957-2.841C79.375,84.335,78.192,84.11,77.525,84.006z"/>
					<path fill="#FFECE1" d="M65.116,52.544c-0.06-0.01-0.056-0.096,0.004-0.102c0.812-0.068,2.389-0.262,2.565-0.718
						c0.188-0.484,0.534-2.352,0.676-3.137c0.01-0.058,0.093-0.055,0.101,0.003c0.099,0.875,0.38,3.086,0.7,3.293
						c0.302,0.197,1.726,0.406,2.389,0.494c0.058,0.008,0.06,0.09,0.002,0.101c-0.53,0.095-1.063,0.208-1.577,0.372
						c-0.259,0.082-0.546,0.182-0.766,0.359c-0.257,0.206-0.313,0.452-0.381,0.757c-0.157,0.688-0.261,1.387-0.365,2.086
						c-0.01,0.059-0.093,0.057-0.101-0.002c-0.09-0.771-0.345-2.375-0.957-2.841C66.967,52.874,65.782,52.648,65.116,52.544z"/>
				</g>
				<g>
					<path fill="#FFECE1" d="M23.316,31.856c-0.084-0.013-0.08-0.136,0.005-0.143c1.15-0.099,3.385-0.372,3.635-1.019
						c0.266-0.686,0.757-3.332,0.957-4.444c0.015-0.082,0.133-0.078,0.143,0.004c0.141,1.241,0.539,4.373,0.991,4.666
						c0.43,0.279,2.445,0.575,3.385,0.7c0.082,0.011,0.084,0.128,0.003,0.143c-0.751,0.134-1.504,0.294-2.232,0.526
						c-0.368,0.117-0.774,0.258-1.086,0.51c-0.363,0.292-0.441,0.64-0.539,1.071c-0.222,0.975-0.371,1.967-0.518,2.954
						c-0.013,0.084-0.134,0.081-0.143-0.003c-0.126-1.09-0.486-3.362-1.354-4.023C25.938,32.324,24.262,32.004,23.316,31.856z"/>
					<path fill="#FFECE1" d="M10.099,59.521c-0.06-0.009-0.057-0.096,0.003-0.1c0.812-0.071,2.39-0.263,2.566-0.72
						c0.188-0.484,0.534-2.352,0.675-3.139c0.011-0.058,0.094-0.055,0.101,0.004c0.1,0.877,0.38,3.087,0.699,3.294
						c0.304,0.197,1.727,0.406,2.39,0.495c0.058,0.007,0.06,0.089,0.002,0.101c-0.531,0.094-1.062,0.207-1.576,0.37
						c-0.259,0.083-0.547,0.184-0.767,0.36c-0.257,0.206-0.312,0.452-0.381,0.757c-0.157,0.688-0.262,1.388-0.366,2.086
						c-0.008,0.058-0.094,0.056-0.101-0.003c-0.089-0.771-0.343-2.373-0.956-2.841C11.949,59.851,10.766,59.625,10.099,59.521z"/>
					<path fill="#FFECE1" d="M6.49,42.202c-0.084-0.013-0.08-0.136,0.005-0.143c1.15-0.099,3.385-0.372,3.636-1.019
						c0.266-0.686,0.756-3.332,0.957-4.444c0.014-0.082,0.133-0.078,0.143,0.005c0.141,1.24,0.539,4.372,0.99,4.666
						c0.43,0.279,2.446,0.575,3.385,0.7c0.082,0.011,0.084,0.128,0.002,0.142c-0.751,0.135-1.504,0.294-2.232,0.526
						c-0.367,0.117-0.774,0.259-1.086,0.51c-0.363,0.292-0.441,0.64-0.539,1.072c-0.221,0.974-0.371,1.966-0.518,2.953
						c-0.012,0.084-0.133,0.081-0.143-0.002c-0.126-1.091-0.487-3.362-1.355-4.024C9.112,42.669,7.436,42.35,6.49,42.202z"/>
				</g>
			</g>
		</g>
	</g>
</g>
</svg>
